<svg id="Capa_1" enable-background="new 0 0 512 512" height="512" viewBox="0 0 512 512" width="512" xmlns="http://www.w3.org/2000/svg" xmlns:xlink="http://www.w3.org/1999/xlink"><linearGradient id="SVGID_1_" gradientUnits="userSpaceOnUse" x1="0" x2="512" y1="253.804" y2="253.804"><stop offset="0" stop-color="#d2deff" stop-opacity="0"/><stop offset="1" stop-color="#b7c5ff"/></linearGradient><g><path d="m20.337 131.316c-23.967 39.399-26.493 107.613-8.937 150.257 15.377 37.351 45.966 72.409 86.12 76.801 14.766 1.615 29.858-1.024 44.472 1.638 50.257 9.152 68.952 71.09 108.01 104.014 27.182 22.913 64.898 31.021 100.174 26.607s68.302-20.363 97.376-40.824c22.957-16.157 44.436-36.022 55.764-61.707 23.744-53.839-4.19-118.501-47.587-158.239-13.517-12.377-28.582-23.294-39.875-37.727-11.293-14.434-18.48-33.695-13.099-51.214 4.293-13.977 15.849-24.812 20.227-38.763 5.958-18.984-3.035-40.281-17.802-53.616s-34.308-20.039-53.666-24.64c-81.103-19.281-258.823-11.525-331.177 107.413z" fill="url(#SVGID_1_)"/><g><path d="m403.634 198.506v-53.11c0-5.523-4.477-10-10-10h-160c-5.523 0-10 4.477-10 10v91.562h-92.59c-5.523 0-10 4.477-10 10v63.83c0 5.523 4.477 10 10 10h35.856c-42.873 14.251-69.127 58.739-59.56 103.989 8.955 42.357 46.334 71.401 87.963 71.401 6.167 0 12.433-.639 18.707-1.965l118.241-25c41.611-8.798 71.383-45.523 71.383-88.054v-123.419c1.74-.613 2.995-2.254 2.995-4.204v-50.826c0-1.95-1.255-3.591-2.995-4.204z" fill="#2626bc" opacity=".1"/><g><g><path d="m257.347 36.431h122.576v151.744h-122.576z" fill="#fff"/><g><g><path d="m403.634 120.396v235.764c0 42.531-29.772 79.256-71.383 88.054l-118.241 25c-6.274 1.326-12.541 1.965-18.707 1.965-41.629 0-79.008-29.045-87.963-71.401-10.282-48.631 20.805-96.389 69.436-106.671l46.858-9.907v-162.804c0-5.523 4.477-10 10-10h160c5.523 0 10 4.477 10 10z" fill="#6583fe"/></g><path d="m269.885 166.535 108.339-56.139h15.411c5.523 0 10 4.477 10 10l.001 54.382-78.01 28.345z" fill="#fff"/><path d="m223.634 136.176 101.992 66.947-101.965 37.049z" fill="#6583fe"/><g fill="#fff"><path d="m403.635 174.773v88.42l-180 20.01.03-43.03z"/><path d="m403.636 295.537v60.62c0 42.53-29.77 79.26-71.38 88.06l-118.25 25c-6.27 1.32-12.54 1.96-18.7 1.96-24.66 0-47.83-10.19-64.48-27.31z"/><path d="m385.586 410.217c-12.72 16.94-31.38 29.36-53.33 34l-118.25 25c-6.27 1.32-12.54 1.96-18.7 1.96-41.63 0-79.01-29.04-87.97-71.4-10.28-48.63 20.81-96.39 69.44-106.67l46.86-9.91z"/></g><path d="m240.665 434.073c-31.46-42.615-62.811-85.552-90.147-130.948-32.917 18.919-51.458 57.501-43.182 96.652 8.96 42.36 46.34 71.4 87.97 71.4 6.16 0 12.43-.64 18.7-1.96l45.487-9.617c-6.267-8.515-12.548-17.02-18.828-25.527z" fill="#6583fe"/><path d="m306.486 449.667-92.48 19.55c-6.27 1.32-12.54 1.96-18.7 1.96-41.63 0-79.01-29.04-87.97-71.4-4.07-19.25-1.66-38.36 5.77-55.06z" fill="#fff"/></g></g><path d="m353.217 177.71v50.826c0 2.471 2.003 4.474 4.474 4.474h44.464c2.471 0 4.474-2.003 4.474-4.474v-50.826c0-2.471-2.003-4.474-4.474-4.474h-44.464c-2.471 0-4.474 2.003-4.474 4.474zm30.12 40.902h-15.436v-30.979h15.436z" fill="#fff"/><g><path d="m244.504 295.788h-113.459c-5.523 0-10-4.477-10-10v-63.83c0-5.523 4.477-10 10-10h113.459c5.523 0 10 4.477 10 10v63.83c0 5.523-4.477 10-10 10z" fill="#fff"/><path d="m367.901 182.634c-2.761 0-5 2.238-5 5v30.979c0 2.762 2.239 5 5 5h15.436c2.761 0 5-2.238 5-5v-30.979c0-2.762-2.239-5-5-5zm10.436 30.978h-5.436v-20.979h5.436z" fill="#00c"/><g><g><path d="m225.327 238.928h-18.583c-2.762 0-5-2.239-5-5s2.238-5 5-5h18.583c2.762 0 5 2.239 5 5s-2.238 5-5 5z" fill="#00c"/></g><g><path d="m225.327 257.31h-58.583c-2.762 0-5-2.239-5-5s2.238-5 5-5h58.583c2.762 0 5 2.239 5 5s-2.238 5-5 5z" fill="#00c"/></g><g><path d="m225.327 275.691h-58.583c-2.762 0-5-2.239-5-5s2.238-5 5-5h58.583c2.762 0 5 2.239 5 5s-2.238 5-5 5z" fill="#00c"/></g></g></g></g><g fill="#6583fe"><path d="m145.54 139.322c-2.761 0-5-2.238-5-5 0-3.492-2.841-6.334-6.333-6.334-2.761 0-5-2.238-5-5s2.239-5 5-5c3.492 0 6.333-2.841 6.333-6.333 0-2.762 2.239-5 5-5s5 2.238 5 5c0 3.492 2.841 6.333 6.333 6.333 2.761 0 5 2.238 5 5s-2.239 5-5 5c-3.492 0-6.333 2.842-6.333 6.334 0 2.762-2.239 5-5 5z"/><path d="m70.766 396.866c-2.761 0-5-2.238-5-5 0-3.492-2.841-6.334-6.333-6.334-2.761 0-5-2.238-5-5s2.239-5 5-5c3.492 0 6.333-2.841 6.333-6.333 0-2.762 2.239-5 5-5s5 2.238 5 5c0 3.492 2.841 6.333 6.333 6.333 2.761 0 5 2.238 5 5s-2.239 5-5 5c-3.492 0-6.333 2.842-6.333 6.334 0 2.762-2.239 5-5 5z"/><path d="m450.009 185.295c-2.761 0-5-2.238-5-5 0-3.492-2.841-6.334-6.333-6.334-2.761 0-5-2.238-5-5s2.239-5 5-5c3.492 0 6.333-2.841 6.333-6.333 0-2.762 2.239-5 5-5s5 2.238 5 5c0 3.492 2.841 6.333 6.333 6.333 2.761 0 5 2.238 5 5s-2.239 5-5 5c-3.492 0-6.333 2.842-6.333 6.334 0 2.761-2.239 5-5 5z"/><path d="m76.281 336.475c-2.761 0-5-2.238-5-5 0-3.492-2.841-6.334-6.334-6.334-2.761 0-5-2.238-5-5s2.239-5 5-5c3.492 0 6.334-2.841 6.334-6.333 0-2.762 2.239-5 5-5s5 2.238 5 5c0 3.492 2.841 6.333 6.333 6.333 2.761 0 5 2.238 5 5s-2.239 5-5 5c-3.492 0-6.333 2.842-6.333 6.334 0 2.762-2.239 5-5 5z"/><g><g><path d="m182.433 153.235c-2.761 0-5-2.238-5-5v-.149c0-2.762 2.239-5 5-5s5 2.238 5 5v.149c0 2.762-2.239 5-5 5z"/><path d="m182.433 181.019c-2.761 0-5-2.238-5-5v-.149c0-2.762 2.239-5 5-5s5 2.238 5 5v.149c0 2.762-2.239 5-5 5z"/></g><g><path d="m170.462 160.145c-.85 0-1.711-.217-2.501-.674l-.13-.075c-2.39-1.384-3.205-4.442-1.822-6.832 1.384-2.39 4.441-3.207 6.833-1.822l.13.075c2.39 1.384 3.205 4.442 1.822 6.832-.927 1.602-2.606 2.496-4.332 2.496z"/><path d="m194.523 174.037c-.85 0-1.711-.217-2.501-.674l-.13-.075c-2.39-1.384-3.206-4.442-1.822-6.832 1.383-2.39 4.441-3.207 6.833-1.822l.13.075c2.39 1.384 3.206 4.442 1.822 6.832-.926 1.601-2.606 2.496-4.332 2.496z"/></g><g><path d="m170.342 174.037c-1.726 0-3.405-.895-4.332-2.496-1.384-2.39-.568-5.448 1.822-6.832l.13-.075c2.392-1.385 5.449-.567 6.833 1.822 1.384 2.39.568 5.448-1.822 6.832l-.13.075c-.79.457-1.651.674-2.501.674z"/><path d="m194.403 160.145c-1.726 0-3.405-.895-4.332-2.496-1.384-2.39-.568-5.448 1.822-6.832l.13-.075c2.392-1.385 5.449-.567 6.833 1.822 1.384 2.39.568 5.448-1.822 6.832l-.13.075c-.789.457-1.651.674-2.501.674z"/></g></g></g></g><path d="m406.629 194.652c2.761 0 5-2.238 5-5v-11.942c0-2.717-1.156-5.163-2.994-6.892v-50.421c0-8.271-6.729-15-15-15h-8.712v-68.967c0-2.762-2.239-5-5-5s-5 2.238-5 5v68.966h-112.575v-68.966c0-2.762-2.239-5-5-5s-5 2.238-5 5v68.966h-18.713c-8.271 0-15 6.729-15 15v62.461c0 2.762 2.239 5 5 5s5-2.238 5-5v-37.418l88.177 57.878-57.307 19.845v-1.205c0-8.271-6.729-15-15-15h-113.46c-8.271 0-15 6.729-15 15v63.83c0 8.271 6.729 15 15 15h13.638c-32.942 20.75-50.613 60.392-42.234 100.023 4.533 21.438 16.427 40.775 33.494 54.452 16.83 13.487 37.912 20.915 59.361 20.915 6.592 0 13.234-.697 19.742-2.073l118.241-25c21.243-4.491 40.472-16.254 54.146-33.12.731-.901 1.431-1.827 2.131-2.748 12.317-16.397 19.073-36.526 19.073-57.078v-120.73c1.838-1.729 2.994-4.176 2.994-6.892v-9.783c0-2.762-2.239-5-5-5s-5 2.238-5 5v9.257h-43.412v-49.773h43.412v11.416c-.002 2.761 2.237 4.999 4.998 4.999zm-275.585 96.136c-2.757 0-5-2.243-5-5v-63.83c0-2.757 2.243-5 5-5h113.46c2.757 0 5 2.243 5 5v63.83c0 2.757-2.243 5-5 5zm81.933 173.534c-5.829 1.231-11.775 1.856-17.674 1.856-39.873 0-74.81-28.36-83.071-67.436-3.423-16.192-1.971-32.378 3.405-46.963l176.521 95.801zm118.24-25-23.973 5.069-187.603-101.816c9.706-19.063 26.537-34.403 48.084-41.788h70.298l140.501 110.244c-12.153 14.366-28.875 24.394-47.307 28.291zm67.418-201.312v118.15c0 16.67-4.974 33.025-14.112 46.868l-132.727-104.143c4.592-2.567 7.707-7.472 7.707-13.097v-52.042l88.713-30.721v25.511c0 5.224 4.25 9.474 9.474 9.474zm0-69.774h-40.944c-5.224 0-9.474 4.25-9.474 9.474v15.044c-.543 0-1.094.067-1.636.255l-17.89 6.195c-.109-.085-.203-.183-.321-.26l-99.735-65.465v-13.082c0-2.757 2.243-5 5-5h160c2.757 0 5 2.243 5 5z" fill="#00c"/></g></svg>