<svg id="Capa_1" enable-background="new 0 0 512 512" height="512" viewBox="0 0 512 512" width="512" xmlns="http://www.w3.org/2000/svg" xmlns:xlink="http://www.w3.org/1999/xlink"><linearGradient id="SVGID_1_" gradientUnits="userSpaceOnUse" x1="4.722" x2="389.966" y1="449.152" y2="-9.964"><stop offset="0" stop-color="#d2deff" stop-opacity="0"/><stop offset="1" stop-color="#b7c5ff"/></linearGradient><g><path d="m451.798 43.963c-160.556-97.87-410.51-8.612-439.594 61.949-38.908 94.394 26.578 110.528 38.743 187.874 9.761 62.061-51.182 121.495-16.394 176.282 37.882 59.663 163.465 44.681 211.198 16.447 87.376-51.682 43.309-112.012 84.684-187.299 39.408-71.707 116.244-42.625 160.961-99.99 42.5-54.521 14.311-122.402-39.598-155.263z" fill="url(#SVGID_1_)"/><g><g fill="#2626bc" opacity=".1"><path d="m41.482 450.854c-5.95 5.951-5.95 15.598 0 21.548 5.951 5.95 15.598 5.95 21.548 0l31.186-31.186-21.548-21.548z"/><path d="m471.925 205.591-99.375-68.915c-3.189-2.211-7.454-2.029-10.44.448-8.538 7.081-20.048 16.948-33.243 28.464 1.918-6.361 2.961-13.102 2.961-20.088 0-38.38-31.114-69.494-69.494-69.494s-69.494 31.113-69.494 69.494 31.113 69.494 69.494 69.494c4.113 0 8.135-.378 12.052-1.063-36.828 33.143-74.253 67.718-94.877 88.342-41.832 41.832-78.583 82.497-106.841 117.395l21.548 21.548c34.898-28.257 75.563-65.008 117.395-106.841 37.072-37.072 119.212-128.418 157.094-173.017l95.573 56.192c2.789 1.64 6.335 1.188 8.623-1.101 3.131-3.13 2.664-8.334-.976-10.858z"/></g><g><g><g fill="#2626bc"><path d="m400.41 220.201h-18.583c-2.762 0-5 2.239-5 5s2.238 5 5 5h18.583c2.762 0 5-2.239 5-5s-2.238-5-5-5z" opacity=".1"/><path d="m400.41 238.582h-58.583c-2.762 0-5 2.239-5 5s2.238 5 5 5h58.583c2.762 0 5-2.239 5-5s-2.238-5-5-5z" opacity=".1"/><path d="m400.41 256.964h-58.583c-2.762 0-5 2.239-5 5s2.238 5 5 5h58.583c2.762 0 5-2.239 5-5s-2.238-5-5-5z" opacity=".1"/></g><g><path d="m94.216 416.217-31.186 31.186c-5.95 5.95-15.598 5.95-21.548 0-5.95-5.95-5.95-15.598 0-21.548l31.186-31.186z" fill="#fff"/><path d="m471.925 180.591-99.375-68.915c-3.188-2.211-7.454-2.028-10.44.448-39.524 32.778-142.624 125.172-182.601 165.149-41.832 41.832-78.584 82.497-106.841 117.395l21.548 21.548c34.898-28.257 75.563-65.009 117.395-106.841 37.072-37.072 119.212-128.418 157.094-173.018l95.573 56.192c2.789 1.64 6.335 1.188 8.623-1.101 3.131-3.129 2.664-8.333-.976-10.857z" fill="#fff"/><path d="m211.608 309.373c-8.45 8.45-16.845 16.689-25.162 24.693l-31.628-31.628c8.005-8.317 16.243-16.712 24.693-25.162 18.602-18.602 50.855-48.543 84.037-78.555l26.622 26.622c-30.011 33.168-59.96 65.428-78.562 84.03z" fill="#6583fe"/><path d="m196.168 261.046c-6.296 6.02-11.921 11.495-16.657 16.231-2.595 2.595-5.163 5.183-7.718 7.768l32.047 32.047c2.584-2.555 5.172-5.123 7.768-7.718 4.736-4.736 10.21-10.361 16.231-16.657z" fill="#fff"/></g><g><circle cx="262.333" cy="120.501" fill="#6583fe" r="69.494"/><path d="m294.67 105.86h-17.695v-17.696c0-5.523-4.477-10-10-10h-9.282c-5.523 0-10 4.477-10 10v17.695h-17.695c-5.523 0-10 4.477-10 10v9.282c0 5.523 4.477 10 10 10h17.695v17.695c0 5.523 4.477 10 10 10h9.282c5.523 0 10-4.477 10-10v-17.695h17.695c5.523 0 10-4.477 10-10v-9.282c0-5.522-4.477-9.999-10-9.999z" fill="#fff"/></g><g fill="#00c"><path d="m479.933 185.346c-.321-3.583-2.201-6.814-5.157-8.864l-99.376-68.914c-5.013-3.477-11.79-3.184-16.481.708-6.043 5.012-13.692 11.521-22.418 19.062.206-2.253.327-4.531.327-6.837 0-35.46-25.215-66.188-59.956-73.065-2.71-.535-5.339 1.225-5.876 3.934-.536 2.708 1.226 5.339 3.935 5.875 30.071 5.953 51.897 32.556 51.897 63.255 0 35.562-28.932 64.494-64.494 64.494s-64.493-28.932-64.493-64.494c0-14.903 4.939-28.896 14.283-40.465 9.077-11.24 21.788-19.191 35.79-22.39 2.692-.615 4.376-3.296 3.761-5.988-.615-2.693-3.304-4.376-5.987-3.761-16.18 3.696-30.862 12.878-41.344 25.855-10.642 13.176-16.503 29.778-16.503 46.748 0 40.372 32.289 73.322 72.395 74.44-32.919 29.775-65.117 59.652-84.262 78.797-40.561 40.561-77.561 81.211-107.019 117.574l-31.008 31.007c-7.891 7.89-7.891 20.729 0 28.62 3.945 3.945 9.128 5.918 14.31 5.918 5.183 0 10.365-1.973 14.31-5.918l31.009-31.009c30.71-24.879 65.163-55.768 99.654-89.346 1.979-1.926 2.021-5.092.095-7.07-1.928-1.979-5.093-2.02-7.071-.095-33.051 32.177-66.05 61.855-95.691 86.072l-15.167-15.167c28.796-35.253 64.551-74.415 103.649-113.515 20.544-20.544 57.414-54.585 93.673-87.222 26.627-5.231 48.202-24.689 56.467-50.105 12.921-11.275 24.064-20.83 32.119-27.509 1.251-1.04 3.062-1.116 4.398-.188l99.376 68.914c.703.488.863 1.175.897 1.54.032.366-.003 1.07-.608 1.675-.679.677-1.728.81-2.554.326l-95.572-56.192c-2.095-1.232-4.772-.779-6.345 1.073-38.331 45.128-116.931 132.392-154.018 169.9-1.941 1.964-1.924 5.129.04 7.071 1.964 1.941 5.128 1.923 7.071-.04 36.372-36.785 112.47-121.185 151.803-167.257l91.953 54.064c4.75 2.794 10.794 2.023 14.692-1.875 2.542-2.539 3.817-6.053 3.496-9.636zm-392.788 230.871-27.65 27.65c-3.991 3.992-10.486 3.991-14.477 0-3.992-3.992-3.992-10.486-.001-14.478l27.651-27.65z"/><path d="m400.41 195.201h-18.583c-2.762 0-5 2.239-5 5s2.238 5 5 5h18.583c2.762 0 5-2.239 5-5s-2.238-5-5-5z"/><path d="m400.41 213.582h-58.583c-2.762 0-5 2.239-5 5s2.238 5 5 5h58.583c2.762 0 5-2.239 5-5s-2.238-5-5-5z"/><path d="m400.41 231.964h-58.583c-2.762 0-5 2.239-5 5s2.238 5 5 5h58.583c2.762 0 5-2.239 5-5s-2.238-5-5-5z"/></g></g><g fill="#6583fe"><path d="m307.454 293.463c-2.762 0-5-2.239-5-5 0-3.492-2.842-6.333-6.334-6.333-2.762 0-5-2.239-5-5s2.238-5 5-5c3.492 0 6.334-2.841 6.334-6.333 0-2.761 2.238-5 5-5s5 2.239 5 5c0 3.492 2.841 6.333 6.333 6.333 2.762 0 5 2.239 5 5s-2.238 5-5 5c-3.492 0-6.333 2.841-6.333 6.333 0 2.761-2.238 5-5 5z"/><path d="m360.494 87.121c-2.762 0-5-2.239-5-5 0-3.492-2.842-6.333-6.334-6.333-2.762 0-5-2.239-5-5s2.238-5 5-5c3.492 0 6.334-2.841 6.334-6.334 0-2.761 2.238-5 5-5s5 2.239 5 5c0 3.492 2.841 6.334 6.333 6.334 2.762 0 5 2.239 5 5s-2.238 5-5 5c-3.492 0-6.333 2.841-6.333 6.333 0 2.761-2.238 5-5 5z"/><path d="m365.494 315.584c-2.762 0-5-2.239-5-5 0-3.492-2.842-6.333-6.334-6.333-2.762 0-5-2.239-5-5s2.238-5 5-5c3.492 0 6.334-2.841 6.334-6.333 0-2.761 2.238-5 5-5s5 2.239 5 5c0 3.492 2.841 6.333 6.333 6.333 2.762 0 5 2.239 5 5s-2.238 5-5 5c-3.492 0-6.333 2.841-6.333 6.333 0 2.761-2.238 5-5 5z"/><g><g><path d="m186.244 208.415c-2.817.005-5.082-2.338-5-5.15 0-2.761 2.238-5 5-5s5 2.239 5 5c.082 2.811-2.183 5.155-5 5.15z"/><path d="m186.244 236.199c-2.817.005-5.082-2.338-5-5.15 0-2.761 2.238-5 5-5s5 2.239 5 5c.082 2.812-2.183 5.155-5 5.15z"/></g><g><path d="m174.273 215.324c-.891.004-1.809-.249-2.618-.742-2.394-1.376-3.218-4.433-1.841-6.827 1.399-2.444 4.559-3.24 6.957-1.766 2.394 1.376 3.218 4.433 1.841 6.827-.924 1.608-2.607 2.508-4.339 2.508z"/><path d="m198.336 229.216c-.885.004-1.798-.246-2.605-.733-2.398-1.369-3.232-4.423-1.863-6.821 1.391-2.448 4.548-3.254 6.951-1.788 2.398 1.369 3.232 4.423 1.863 6.821-.921 1.615-2.61 2.521-4.346 2.521z"/></g><g><path d="m174.153 229.216c-1.731 0-3.414-.9-4.339-2.508-1.409-2.439-.508-5.571 1.971-6.902 2.396-1.378 5.45-.552 6.827 1.841 1.377 2.394.553 5.451-1.841 6.827-.809.493-1.727.746-2.618.742z"/><path d="m198.215 215.324c-1.736 0-3.425-.906-4.347-2.522-1.369-2.398-.535-5.452 1.863-6.821 2.401-1.464 5.561-.66 6.951 1.788 1.369 2.398.535 5.452-1.863 6.821-.805.488-1.719.737-2.604.734z"/></g></g><g><g><path d="m307.454 324.058c-2.762 0-5-2.239-5-5v-.15c0-2.761 2.238-5 5-5s5 2.239 5 5v.15c0 2.761-2.238 5-5 5z"/><path d="m307.454 351.842c-2.762 0-5-2.239-5-5v-.15c0-2.761 2.238-5 5-5s5 2.239 5 5v.15c0 2.761-2.238 5-5 5z"/></g><g><path d="m295.483 330.967c-.845 0-1.701-.214-2.486-.665l-.131-.075c-2.395-1.376-3.22-4.432-1.844-6.827 1.376-2.393 4.432-3.221 6.826-1.844l.131.075c2.395 1.376 3.22 4.432 1.844 6.827-.925 1.608-2.608 2.509-4.34 2.509z"/><path d="m319.545 344.859c-.851 0-1.712-.217-2.5-.674l-.13-.075c-2.39-1.384-3.206-4.442-1.822-6.833 1.384-2.39 4.445-3.205 6.832-1.822l.13.075c2.39 1.384 3.206 4.442 1.822 6.833-.927 1.601-2.606 2.496-4.332 2.496z"/></g><g><path d="m295.362 344.859c-1.732 0-3.415-.9-4.34-2.51-1.376-2.395-.551-5.451 1.844-6.827l.131-.075c2.396-1.375 5.45-.55 6.826 1.844 1.376 2.395.551 5.451-1.844 6.827l-.131.075c-.784.452-1.641.666-2.486.666z"/><path d="m319.425 330.967c-1.727 0-3.405-.895-4.332-2.496-1.384-2.39-.567-5.449 1.822-6.832l.13-.075c2.389-1.384 5.449-.567 6.832 1.822 1.384 2.39.567 5.449-1.822 6.833l-.13.075c-.788.456-1.651.673-2.5.673z"/></g></g></g></g></g></g></svg>