<svg id="Capa_1" enable-background="new 0 0 512 512" height="512" viewBox="0 0 512 512" width="512" xmlns="http://www.w3.org/2000/svg" xmlns:xlink="http://www.w3.org/1999/xlink"><linearGradient id="SVGID_1_" gradientUnits="userSpaceOnUse" x1="0" x2="512" y1="258.737" y2="258.737"><stop offset="0" stop-color="#d2deff" stop-opacity="0"/><stop offset="1" stop-color="#b7c5ff"/></linearGradient><g><path d="m16.074 305.617c18.727 64.003 72.707 194.564 163.922 182.845 91.486-11.755 55.758-129.725 139.508-145.894 36.867-7.118 61.857 56.689 98.806 54.704 47.588-2.557 71.81-49.663 85.108-89.264 28.197-83.968-14.029-226.353-112.858-251.012-86.245-21.519-96.332 83.855-171.322 53.248-42.149-17.203-37.938-68.576-89.272-78.942-155.299-31.359-138.811 189.151-113.892 274.315z" fill="url(#SVGID_1_)"/><g><path d="m374.357 490.32h-236.714c-5.523 0-10-4.477-10-10v-313.56c0-5.523 4.477-10 10-10h236.714c5.523 0 10 4.477 10 10v313.56c0 5.523-4.477 10-10 10z" fill="#2626bc" opacity=".1"/><g><g fill="#fff"><path d="m268.282 92.934h-24.564v-28.499c0-6.783 5.499-12.282 12.282-12.282 6.783 0 12.282 5.499 12.282 12.282z"/><path d="m374.357 465.32h-236.714c-5.523 0-10-4.477-10-10v-313.56c0-5.523 4.477-10 10-10h236.714c5.523 0 10 4.477 10 10v313.56c0 5.523-4.477 10-10 10z"/><path d="m166.812 279.655h-39.169v-110.971h39.169c5.523 0 10 4.477 10 10v90.971c0 5.523-4.477 10-10 10z"/></g><g><g><path d="m127.643 226.357h31.193c2.762 0 5-2.239 5-5s-2.238-5-5-5h-31.193z" fill="#00c"/></g><g><path d="m127.643 245.127h16.193c2.762 0 5-2.239 5-5s-2.238-5-5-5h-16.193z" fill="#00c"/></g><g><path d="m127.643 263.898h16.193c2.762 0 5-2.239 5-5s-2.238-5-5-5h-16.193z" fill="#00c"/></g></g><path d="m176.812 197.471v-18.787c0-5.523-4.477-10-10-10h-39.169v28.787z" fill="#6583fe"/><g><path d="m291.867 318.269h-47.172c-7.656 0-14.213-5.444-15.66-12.962-2.065-10.729-3.205-22.488-3.205-34.82s1.141-24.091 3.205-34.82c1.447-7.518 8.004-12.962 15.66-12.962h47.172c7.656 0 14.213 5.444 15.66 12.962 2.065 10.729 3.205 22.488 3.205 34.82s-1.141 24.091-3.205 34.82c-1.447 7.518-8.004 12.962-15.66 12.962z" fill="#fff"/><path d="m310.364 282.597h-84.16c-.25-3.97-.37-8.01-.37-12.12 0-4.1.12-8.14.37-12.1h84.16c.25 3.96.37 8 .37 12.1 0 4.11-.12 8.151-.37 12.12z" fill="#6583fe"/><g><path d="m291.867 323.269h-47.173c-10.021 0-18.672-7.157-20.569-17.018-2.186-11.36-3.296-23.393-3.296-35.764s1.109-24.404 3.296-35.766c1.898-9.86 10.548-17.017 20.569-17.017h47.173c10.021 0 18.672 7.157 20.57 17.017 2.186 11.364 3.295 23.397 3.295 35.766s-1.108 24.402-3.295 35.765c-1.898 9.861-10.549 17.017-20.57 17.017zm-47.173-95.564c-5.235 0-9.757 3.746-10.749 8.907-2.068 10.74-3.116 22.138-3.116 33.875 0 11.738 1.048 23.135 3.116 33.875.992 5.162 5.514 8.907 10.749 8.907h47.173c5.235 0 9.757-3.746 10.75-8.907 2.067-10.741 3.115-22.138 3.115-33.875 0-11.736-1.048-23.133-3.115-33.875-.993-5.161-5.515-8.907-10.75-8.907z" fill="#00c"/></g></g><g><path d="m365.49 465.32h-47.172c-7.656 0-14.213-5.444-15.66-12.962-2.065-10.729-3.205-22.488-3.205-34.82s1.141-24.091 3.205-34.82c1.447-7.518 8.004-12.962 15.66-12.962h47.172c7.656 0 14.213 5.444 15.66 12.962 2.065 10.729 3.205 22.488 3.205 34.82s-1.141 24.091-3.205 34.82c-1.447 7.518-8.004 12.962-15.66 12.962z" fill="#fff"/><path d="m383.987 429.648h-84.16c-.25-3.97-.37-8.01-.37-12.12 0-4.1.12-8.14.37-12.1h84.16c.25 3.96.37 8 .37 12.1 0 4.11-.12 8.15-.37 12.12z" fill="#6583fe"/><g><path d="m365.49 470.32h-47.173c-10.02 0-18.672-7.156-20.57-17.016-2.187-11.364-3.295-23.397-3.295-35.766s1.108-24.402 3.295-35.765c1.898-9.86 10.55-17.017 20.57-17.017h47.173c10.021 0 18.672 7.157 20.569 17.018 2.186 11.36 3.296 23.393 3.296 35.764s-1.109 24.404-3.296 35.766c-1.897 9.859-10.547 17.016-20.569 17.016zm-47.173-95.564c-5.235 0-9.757 3.746-10.75 8.907-2.067 10.741-3.115 22.138-3.115 33.875 0 11.736 1.048 23.133 3.115 33.875.993 5.161 5.515 8.906 10.75 8.906h47.173c5.235 0 9.757-3.746 10.749-8.906 2.068-10.74 3.116-22.138 3.116-33.875s-1.048-23.135-3.116-33.875c-.992-5.162-5.514-8.907-10.749-8.907z" fill="#00c"/></g></g><g><path d="m353.226 317.407v47.172c0 7.656-5.444 14.213-12.962 15.66-10.729 2.065-22.488 3.205-34.82 3.205s-24.091-1.141-34.82-3.205c-7.518-1.447-12.962-8.004-12.962-15.66v-47.172c0-7.656 5.444-14.213 12.962-15.66 10.729-2.065 22.488-3.205 34.82-3.205s24.091 1.141 34.82 3.205c7.519 1.447 12.962 8.005 12.962 15.66z" fill="#fff"/><path d="m317.555 298.91v84.16c-3.97.25-8.01.37-12.12.37-4.1 0-8.14-.12-12.1-.37v-84.16c3.96-.25 8-.37 12.1-.37 4.11 0 8.15.12 12.12.37z" fill="#6583fe"/><g><path d="m305.444 388.445c-12.368 0-24.401-1.109-35.765-3.295-9.86-1.898-17.017-10.549-17.017-20.57v-47.172c0-10.022 7.156-18.672 17.016-20.569 11.363-2.187 23.397-3.296 35.766-3.296 12.37 0 24.403 1.109 35.766 3.296 9.86 1.897 17.017 10.548 17.017 20.569v47.172c0 10.021-7.156 18.672-17.017 20.57-11.363 2.186-23.396 3.295-35.766 3.295zm0-84.903c-11.736 0-23.134 1.048-33.875 3.115-5.161.993-8.906 5.514-8.906 10.75v47.172c0 5.236 3.745 9.757 8.906 10.75 10.742 2.067 22.14 3.115 33.875 3.115 11.736 0 23.134-1.048 33.876-3.115 5.16-.993 8.906-5.514 8.906-10.75v-47.172c0-5.236-3.746-9.756-8.907-10.75-10.74-2.067-22.137-3.115-33.875-3.115z" fill="#00c"/></g></g><g><path d="m327.065 427.3-33.356 33.356c-5.414 5.414-13.9 6.201-20.239 1.908-9.046-6.126-18.168-13.635-26.888-22.355s-16.229-17.842-22.355-26.888c-4.293-6.339-3.506-14.825 1.908-20.239l33.356-33.356c5.413-5.414 13.9-6.201 20.239-1.908 9.046 6.126 18.168 13.635 26.888 22.355s16.229 17.842 22.355 26.888c4.292 6.34 3.505 14.826-1.908 20.239z" fill="#fff"/><path d="m314.92 388.997-59.51 59.51c-2.984-2.63-5.925-5.402-8.832-8.309-2.899-2.899-5.671-5.841-8.294-8.818l59.51-59.51c2.977 2.623 5.919 5.395 8.818 8.294 2.906 2.907 5.678 5.849 8.308 8.833z" fill="#6583fe"/><g><path d="m282.43 470.31c-4.082 0-8.188-1.184-11.764-3.606-9.583-6.49-18.875-14.215-27.619-22.96-8.748-8.747-16.473-18.04-22.959-27.62-5.631-8.314-4.574-19.492 2.511-26.578l33.357-33.356c7.086-7.086 18.263-8.143 26.577-2.512 9.583 6.49 18.875 14.215 27.619 22.96 8.744 8.743 16.47 18.036 22.96 27.62 5.63 8.314 4.573 19.491-2.512 26.578h-.001l-33.355 33.356c-4.038 4.038-9.406 6.118-14.814 6.118zm-11.667-110.241c-2.826 0-5.628 1.085-7.735 3.193l-33.357 33.356c-3.701 3.702-4.249 9.548-1.303 13.9 6.133 9.056 13.45 17.856 21.75 26.156 8.297 8.297 17.098 15.615 26.156 21.75 4.352 2.947 10.197 2.399 13.9-1.303l33.355-33.356h-.001c3.703-3.703 4.251-9.548 1.305-13.9-6.137-9.06-13.454-17.86-21.751-26.156-8.297-8.297-17.098-15.615-26.156-21.75-1.874-1.269-4.026-1.89-6.163-1.89zm56.302 67.231h.01z" fill="#00c"/></g></g><g><path d="m165.663 456.713-33.356-33.356c-5.413-5.414-6.201-13.9-1.908-20.239 6.126-9.046 13.635-18.168 22.355-26.888s17.842-16.228 26.888-22.355c6.339-4.293 14.825-3.505 20.239 1.908l33.356 33.356c5.414 5.413 6.201 13.9 1.908 20.239-6.126 9.046-13.635 18.168-22.355 26.888s-17.842 16.229-26.888 22.355c-6.34 4.293-14.826 3.505-20.239-1.908z" fill="#fff"/><path d="m203.966 444.569-59.51-59.51c2.631-2.984 5.402-5.926 8.309-8.832 2.899-2.899 5.841-5.671 8.818-8.294l59.51 59.51c-2.623 2.977-5.395 5.918-8.294 8.818-2.908 2.905-5.849 5.677-8.833 8.308z" fill="#6583fe"/><g><path d="m176.941 466.367c-5.409 0-10.775-2.08-14.814-6.118l-33.355-33.356c-7.087-7.086-8.144-18.264-2.513-26.578 6.489-9.582 14.214-18.874 22.96-27.62 8.745-8.746 18.038-16.47 27.619-22.959 8.314-5.631 19.492-4.573 26.578 2.513l33.355 33.355c7.086 7.086 8.143 18.264 2.514 26.578-6.489 9.581-14.214 18.874-22.961 27.621-8.746 8.746-18.038 16.471-27.619 22.959-3.575 2.42-7.682 3.605-11.764 3.605zm-7.744-13.19c3.704 3.703 9.55 4.25 13.9 1.303 9.057-6.133 17.857-13.451 26.156-21.75s15.617-17.1 21.751-26.156c2.946-4.352 2.397-10.197-1.305-13.9l-33.355-33.355c-3.703-3.702-9.548-4.251-13.899-1.304-9.058 6.134-17.857 13.452-26.156 21.75-8.298 8.298-15.616 17.099-21.751 26.156-2.946 4.351-2.398 10.197 1.304 13.899z" fill="#00c"/></g></g><g><path d="m204.362 396.54-33.356-33.356c-5.413-5.414-6.201-13.9-1.908-20.239 6.126-9.046 13.635-18.168 22.355-26.888s17.842-16.229 26.888-22.355c6.339-4.293 14.825-3.506 20.239 1.908l33.356 33.356c5.414 5.413 6.201 13.9 1.908 20.239-6.126 9.046-13.635 18.168-22.355 26.888s-17.842 16.229-26.888 22.355c-6.339 4.293-14.825 3.505-20.239-1.908z" fill="#fff"/><path d="m242.666 384.396-59.51-59.51c2.63-2.984 5.402-5.926 8.309-8.832 2.899-2.899 5.841-5.671 8.818-8.294l59.51 59.51c-2.623 2.977-5.395 5.919-8.294 8.818-2.908 2.906-5.849 5.677-8.833 8.308z" fill="#6583fe"/><g><path d="m215.642 406.194c-5.409 0-10.776-2.08-14.815-6.119h.001c-.001 0-.001 0-.001 0l-33.354-33.355c-7.087-7.085-8.144-18.263-2.513-26.578 6.487-9.581 14.212-18.874 22.959-27.62 8.749-8.749 18.042-16.473 27.62-22.959 8.314-5.63 19.492-4.573 26.578 2.513l33.355 33.355c7.087 7.086 8.144 18.264 2.513 26.578-6.486 9.579-14.211 18.872-22.959 27.62-8.746 8.747-18.039 16.471-27.62 22.96-3.578 2.421-7.683 3.605-11.764 3.605zm11.666-110.241c-2.138 0-4.288.621-6.162 1.89-9.055 6.131-17.855 13.449-26.157 21.75-8.299 8.299-15.616 17.099-21.75 26.156-2.947 4.352-2.398 10.197 1.304 13.899l33.355 33.356h.001c3.701 3.702 9.547 4.25 13.898 1.303 9.058-6.133 17.857-13.451 26.157-21.75 8.3-8.3 15.617-17.101 21.75-26.156 2.947-4.352 2.398-10.197-1.304-13.9l-33.355-33.355c-2.108-2.107-4.911-3.193-7.737-3.193z" fill="#00c"/></g></g><g><path d="m253.662 399.282v47.172c0 7.656-5.444 14.213-12.962 15.66-10.729 2.065-22.488 3.205-34.82 3.205s-24.091-1.141-34.82-3.205c-7.518-1.447-12.962-8.004-12.962-15.66v-47.172c0-7.656 5.444-14.213 12.962-15.66 10.729-2.065 22.488-3.205 34.82-3.205s24.091 1.141 34.82 3.205c7.518 1.447 12.962 8.005 12.962 15.66z" fill="#fff"/><path d="m217.99 380.785v84.16c-3.97.25-8.01.37-12.12.37-4.1 0-8.14-.12-12.1-.37v-84.16c3.96-.25 8-.37 12.1-.37 4.11 0 8.15.12 12.12.37z" fill="#6583fe"/><g><path d="m205.88 470.32c-12.368 0-24.401-1.109-35.765-3.295-9.86-1.898-17.017-10.549-17.017-20.57v-47.172c0-10.022 7.156-18.672 17.016-20.569 11.363-2.187 23.396-3.296 35.766-3.296s24.403 1.109 35.766 3.296c9.86 1.897 17.017 10.548 17.017 20.569v47.172c0 10.021-7.156 18.672-17.017 20.57-11.364 2.186-23.397 3.295-35.766 3.295zm0-84.903c-11.736 0-23.134 1.048-33.875 3.115-5.161.993-8.906 5.514-8.906 10.75v47.172c0 5.236 3.745 9.757 8.906 10.75 10.742 2.067 22.14 3.115 33.875 3.115 11.736 0 23.134-1.048 33.876-3.115 5.16-.993 8.906-5.514 8.906-10.75v-47.172c0-5.236-3.746-9.756-8.907-10.75-10.74-2.067-22.138-3.115-33.875-3.115z" fill="#00c"/></g></g><path d="m374.256 131.76v-40.353c0-5.523-4.477-10-10-10h-216.512c-5.523 0-10 4.477-10 10v40.353z" fill="#6583fe"/><path d="m379.256 127.598v-36.191c0-8.271-6.729-15-15-15h-90.974v-11.972c0-9.529-7.753-17.282-17.282-17.282s-17.282 7.752-17.282 17.282v11.972h-90.974c-8.271 0-15 6.729-15 15v36.191c-5.87 2.037-10.102 7.608-10.102 14.162v161.037c0 2.761 2.238 5 5 5s5-2.239 5-5v-161.037c0-2.757 2.243-5 5-5 .017 0 .033-.005.051-.005.017 0 .033.005.051.005h182.262c2.762 0 5-2.239 5-5s-2.238-5-5-5h-177.262v-35.353c0-2.757 2.243-5 5-5h216.512c2.757 0 5 2.243 5 5v35.353h-20.15c-2.762 0-5 2.239-5 5s2.238 5 5 5h25.15c.017 0 .033-.005.051-.005.017 0 .034.005.051.005 2.757 0 5 2.243 5 5v313.56c0 2.757-2.243 5-5 5h-236.715c-2.757 0-5-2.243-5-5v-123.422c0-2.761-2.238-5-5-5s-5 2.239-5 5v123.422c0 8.271 6.729 15 15 15h236.715c8.272 0 15-6.729 15-15v-313.56c-.001-6.554-4.232-12.125-10.102-14.162zm-130.538-63.163c0-4.015 3.267-7.282 7.282-7.282 4.016 0 7.282 3.267 7.282 7.282v11.972h-14.564z" fill="#00c"/></g><g fill="#6583fe"><g><g><path d="m428.033 351.6c-2.762 0-5-2.239-5-5v-.15c0-2.761 2.238-5 5-5s5 2.239 5 5v.15c0 2.761-2.238 5-5 5z"/><path d="m428.033 379.384c-2.762 0-5-2.239-5-5v-.15c0-2.761 2.238-5 5-5s5 2.239 5 5v.15c0 2.761-2.238 5-5 5z"/></g><g><path d="m416.063 358.509c-.846 0-1.702-.215-2.488-.667l-.13-.075c-2.394-1.376-3.218-4.433-1.841-6.827 1.377-2.393 4.431-3.218 6.827-1.841l.13.075c2.394 1.376 3.218 4.433 1.841 6.827-.925 1.608-2.608 2.508-4.339 2.508z"/><path d="m440.125 372.401c-.84 0-1.691-.213-2.474-.659l-.131-.075c-2.398-1.369-3.232-4.423-1.863-6.821 1.368-2.397 4.421-3.232 6.82-1.863l.131.075c2.398 1.369 3.232 4.423 1.863 6.821-.921 1.616-2.61 2.522-4.346 2.522z"/></g><g><path d="m415.942 372.401c-1.732 0-3.414-.9-4.339-2.508-1.377-2.394-.553-5.451 1.841-6.827l.13-.075c2.397-1.377 5.451-.552 6.827 1.841 1.377 2.394.553 5.451-1.841 6.827l-.13.075c-.785.452-1.642.667-2.488.667z"/><path d="m440.004 358.509c-1.736 0-3.425-.906-4.347-2.522-1.369-2.398-.535-5.452 1.863-6.821l.131-.075c2.397-1.368 5.453-.534 6.82 1.863 1.369 2.398.535 5.452-1.863 6.821l-.131.075c-.781.447-1.633.659-2.473.659z"/></g></g><g><g><path d="m71.031 151.774c-2.762 0-5-2.239-5-5v-.15c0-2.761 2.238-5 5-5s5 2.239 5 5v.15c0 2.762-2.238 5-5 5z"/><path d="m71.031 179.558c-2.762 0-5-2.239-5-5v-.15c0-2.761 2.238-5 5-5s5 2.239 5 5v.15c0 2.761-2.238 5-5 5z"/></g><g><path d="m59.061 158.684c-.85 0-1.712-.217-2.5-.674l-.13-.075c-2.39-1.384-3.206-4.442-1.822-6.833 1.383-2.389 4.445-3.205 6.832-1.822l.13.075c2.39 1.384 3.206 4.442 1.822 6.833-.927 1.601-2.607 2.496-4.332 2.496z"/><path d="m83.122 172.576c-.851 0-1.712-.217-2.5-.674l-.13-.075c-2.39-1.384-3.206-4.442-1.822-6.832 1.383-2.39 4.444-3.205 6.832-1.822l.13.075c2.39 1.384 3.206 4.442 1.822 6.833-.927 1.6-2.606 2.495-4.332 2.495z"/></g><g><path d="m58.94 172.576c-1.727 0-3.405-.895-4.332-2.496-1.384-2.39-.567-5.449 1.822-6.833l.13-.075c2.39-1.384 5.449-.567 6.832 1.822 1.384 2.39.567 5.449-1.822 6.832l-.13.075c-.788.457-1.65.675-2.5.675z"/><path d="m83.002 158.684c-1.727 0-3.405-.895-4.332-2.496-1.384-2.39-.567-5.449 1.822-6.833l.13-.075c2.391-1.384 5.449-.567 6.832 1.822 1.384 2.39.567 5.449-1.822 6.833l-.13.075c-.788.456-1.65.674-2.5.674z"/></g></g><g><g><path d="m194.322 31.83c-2.762 0-5-2.239-5-5v-.15c0-2.761 2.238-5 5-5s5 2.239 5 5v.15c0 2.761-2.238 5-5 5z"/><path d="m194.322 59.614c-2.762 0-5-2.239-5-5v-.15c0-2.761 2.238-5 5-5s5 2.239 5 5v.15c0 2.761-2.238 5-5 5z"/></g><g><path d="m182.352 38.74c-.851 0-1.712-.217-2.5-.674l-.13-.075c-2.39-1.384-3.206-4.442-1.822-6.832s4.445-3.204 6.832-1.822l.13.075c2.39 1.384 3.206 4.442 1.822 6.833-.927 1.6-2.607 2.495-4.332 2.495z"/><path d="m206.413 52.632c-.851 0-1.712-.217-2.5-.674l-.13-.075c-2.39-1.384-3.206-4.442-1.822-6.833 1.384-2.389 4.444-3.204 6.832-1.822l.13.075c2.39 1.384 3.206 4.442 1.822 6.833-.927 1.601-2.606 2.496-4.332 2.496z"/></g><g><path d="m182.231 52.632c-1.726 0-3.405-.894-4.332-2.496-1.384-2.39-.567-5.449 1.822-6.833l.13-.075c2.39-1.385 5.449-.567 6.832 1.822 1.384 2.39.567 5.449-1.822 6.833l-.13.075c-.788.456-1.65.674-2.5.674z"/><path d="m206.293 38.74c-1.727 0-3.405-.895-4.332-2.496-1.384-2.39-.567-5.449 1.822-6.833l.13-.075c2.39-1.385 5.449-.567 6.832 1.822 1.384 2.39.567 5.449-1.822 6.832l-.13.075c-.788.457-1.65.675-2.5.675z"/></g></g><path d="m439.367 434.198c-2.762 0-5-2.239-5-5 0-3.492-2.842-6.333-6.334-6.333-2.762 0-5-2.239-5-5s2.238-5 5-5c3.492 0 6.334-2.841 6.334-6.333 0-2.761 2.238-5 5-5s5 2.239 5 5c0 3.492 2.841 6.333 6.333 6.333 2.762 0 5 2.239 5 5s-2.238 5-5 5c-3.492 0-6.333 2.841-6.333 6.333 0 2.761-2.238 5-5 5z"/><path d="m95.586 127.917c-2.762 0-5-2.239-5-5 0-3.492-2.841-6.334-6.333-6.334-2.762 0-5-2.239-5-5s2.238-5 5-5c3.492 0 6.333-2.841 6.333-6.333 0-2.761 2.238-5 5-5s5 2.239 5 5c0 3.492 2.841 6.333 6.333 6.333 2.762 0 5 2.239 5 5s-2.238 5-5 5c-3.492 0-6.333 2.841-6.333 6.334 0 2.761-2.238 5-5 5z"/></g></g><g><path d="m166.813 284.655h-39.17c-2.762 0-5-2.239-5-5s2.238-5 5-5h39.17c2.757 0 5-2.243 5-5v-90.971c0-2.757-2.243-5-5-5h-39.17c-2.762 0-5-2.239-5-5s2.238-5 5-5h39.17c8.271 0 15 6.729 15 15v90.971c0 8.271-6.729 15-15 15z" fill="#00c"/></g></g></svg>