<svg id="Capa_1" enable-background="new 0 0 512 512" height="512" viewBox="0 0 512 512" width="512" xmlns="http://www.w3.org/2000/svg" xmlns:xlink="http://www.w3.org/1999/xlink"><linearGradient id="SVGID_1_" gradientUnits="userSpaceOnUse" x1="8.753" x2="524.203" y1="401.161" y2="103.566"><stop offset="0" stop-color="#d2deff" stop-opacity="0"/><stop offset="1" stop-color="#b7c5ff"/></linearGradient><g><path d="m418.32 2.5c-55.666-9.521-178.298 12.183-200.004 105.016-14.432 61.722-14.007 112.075-50.427 113.02-21.67.562-32.97-44.31-62.889-48.001-39.047-4.817-66.145 27.695-83.057 57.138-37.205 64.772-25.571 174.918 23.354 228.632 118.488 130.086 259.197-5.952 319.358-112.309 38.585-68.213 125.637-123.352 143.767-200.248 15.177-64.375-18.503-131.002-90.102-143.248z" fill="url(#SVGID_1_)"/><g><path d="m416.146 109.383h-95.695c-3.94 0-7.562 2.227-9.275 5.775-4.668 9.665-11.799 17.916-20.578 23.939-8.549 5.87-18.669 9.62-29.597 10.503v-35.217h20.247c2.761 0 5-2.239 5-5s-2.239-5-5-5h-11.024c5.196-4.169 8.526-10.569 8.526-17.749 0-12.564-10.185-22.749-22.749-22.749s-22.749 10.185-22.749 22.749c0 7.18 3.33 13.58 8.526 17.749h-11.024c-2.761 0-5 2.239-5 5s2.239 5 5 5h20.246v35.217c-10.929-.883-21.048-4.633-29.597-10.503-8.779-6.023-15.909-14.274-20.578-23.939-1.714-3.548-5.335-5.775-9.275-5.775h-95.696c-5.16 0-9.344 4.184-9.344 9.344 0 11.25 9.12 20.37 20.37 20.37h23.901v9.344c0 11.25 9.12 20.37 20.37 20.37h15.049v9.34c0 11.25 9.12 20.37 20.37 20.37h64.43v25.717c-1.413-.794-3.041-1.251-4.777-1.251h-27.757c-2.111 0-3.908 1.312-4.643 3.161-25.112.605-45.357 21.206-45.357 46.461 0 12.658 5.091 24.145 13.326 32.536-8.234 8.392-13.326 19.879-13.326 32.536 0 23.857 18.066 43.565 41.234 46.184-2.58 5.776-4.026 12.165-4.026 18.889 0 25.244 20.229 45.838 45.325 46.46v17.066h-5.876c-2.761 0-5 2.239-5 5s2.239 5 5 5h5.877v11.488c0 2.761 2.239 5 5 5s5-2.239 5-5v-11.488h5.875c2.761 0 5-2.239 5-5s-2.239-5-5-5h-5.875v-17.066c25.097-.622 45.325-21.216 45.325-46.46 0-6.724-1.446-13.113-4.026-18.889 23.168-2.62 41.234-22.327 41.234-46.184 0-12.658-5.091-24.145-13.326-32.536 8.234-8.392 13.326-19.879 13.326-32.536 0-25.255-20.245-45.856-45.357-46.461-.735-1.849-2.532-3.161-4.643-3.161h-27.757c-1.736 0-3.364.457-4.777 1.251v-25.717h64.43c11.25 0 20.37-9.12 20.37-20.37v-9.34h15.049c11.25 0 20.37-9.12 20.37-20.37v-9.344h23.901c11.25 0 20.37-9.12 20.37-20.37.001-5.16-4.183-9.344-9.343-9.344zm-201.19 144.643h18.386 3.777c5.498 0 10.431-2.364 13.882-6.114v43.28h-36.044c-10.247 0-18.583-8.337-18.583-18.583-.001-10.247 8.335-18.583 18.582-18.583zm-18.583 83.656c0-10.247 8.337-18.583 18.583-18.583h36.044v37.167h-36.044c-10.247-.001-18.583-8.337-18.583-18.584zm37.208 65.073c0-9.854 7.715-17.919 17.419-18.524v37.049c-9.704-.606-17.419-8.671-17.419-18.525zm27.419 18.524v-37.049c9.704.606 17.419 8.671 17.419 18.524 0 9.855-7.715 17.92-17.419 18.525zm36.044-65.014h-36.044v-37.167h36.044c10.247 0 18.583 8.337 18.583 18.583s-8.336 18.584-18.583 18.584zm-22.162-102.239h3.777 18.386c10.247 0 18.583 8.336 18.583 18.583s-8.336 18.583-18.583 18.583h-36.045v-43.281c3.451 3.751 8.384 6.115 13.882 6.115z" fill="#2626bc" opacity=".1"/><g fill="#6583fe"><path d="m330.476 55.218c-2.761 0-5-2.239-5-5 0-3.492-2.841-6.333-6.333-6.333-2.761 0-5-2.239-5-5s2.239-5 5-5c3.492 0 6.333-2.841 6.333-6.334 0-2.761 2.239-5 5-5s5 2.239 5 5c0 3.492 2.841 6.334 6.333 6.334 2.761 0 5 2.239 5 5s-2.239 5-5 5c-3.492 0-6.333 2.841-6.333 6.333 0 2.762-2.239 5-5 5z"/><path d="m407.952 189.855c-2.761 0-5-2.239-5-5 0-3.492-2.841-6.333-6.333-6.333-2.761 0-5-2.239-5-5s2.239-5 5-5c3.492 0 6.333-2.841 6.333-6.333 0-2.761 2.239-5 5-5s5 2.239 5 5c0 3.492 2.841 6.333 6.333 6.333 2.761 0 5 2.239 5 5s-2.239 5-5 5c-3.492 0-6.333 2.841-6.333 6.333 0 2.761-2.239 5-5 5z"/><path d="m123.525 250.404c-2.761 0-5-2.239-5-5 0-3.492-2.841-6.333-6.333-6.333-2.761 0-5-2.239-5-5s2.239-5 5-5c3.492 0 6.333-2.841 6.333-6.333 0-2.761 2.239-5 5-5s5 2.239 5 5c0 3.492 2.841 6.333 6.333 6.333 2.761 0 5 2.239 5 5s-2.239 5-5 5c-3.492 0-6.333 2.841-6.333 6.333 0 2.761-2.239 5-5 5z"/><g><g><path d="m106.623 176.414c-2.761 0-5-2.239-5-5v-.15c0-2.761 2.239-5 5-5s5 2.239 5 5v.15c0 2.761-2.239 5-5 5z"/><path d="m106.623 204.197c-2.761 0-5-2.239-5-5v-.15c0-2.761 2.239-5 5-5s5 2.239 5 5v.15c0 2.762-2.239 5-5 5z"/></g><g><path d="m94.652 183.323c-.85 0-1.711-.217-2.5-.674l-.13-.075c-2.39-1.384-3.206-4.442-1.822-6.832 1.383-2.389 4.441-3.205 6.832-1.822l.13.075c2.39 1.384 3.206 4.442 1.822 6.832-.926 1.601-2.606 2.496-4.332 2.496z"/><path d="m118.714 197.215c-.85 0-1.712-.217-2.501-.674l-.13-.075c-2.39-1.384-3.206-4.442-1.822-6.833 1.383-2.389 4.441-3.206 6.833-1.822l.13.075c2.39 1.384 3.206 4.442 1.822 6.833-.926 1.601-2.606 2.496-4.332 2.496z"/></g><g><path d="m94.532 197.215c-1.726 0-3.405-.895-4.332-2.496-1.384-2.39-.568-5.449 1.822-6.833l.13-.075c2.391-1.384 5.449-.567 6.832 1.822 1.384 2.39.568 5.449-1.822 6.833l-.13.075c-.788.457-1.65.674-2.5.674z"/><path d="m118.594 183.323c-1.726 0-3.405-.895-4.332-2.496-1.384-2.39-.568-5.449 1.822-6.832l.13-.075c2.392-1.383 5.45-.568 6.833 1.822 1.384 2.39.568 5.449-1.822 6.832l-.13.075c-.789.456-1.651.674-2.501.674z"/></g></g><g><g><path d="m372.427 390.583c-2.761 0-5-2.239-5-5v-.15c0-2.761 2.239-5 5-5s5 2.239 5 5v.15c0 2.761-2.239 5-5 5z"/><path d="m372.427 418.367c-2.761 0-5-2.239-5-5v-.15c0-2.761 2.239-5 5-5s5 2.239 5 5v.15c0 2.761-2.239 5-5 5z"/></g><g><path d="m360.456 397.492c-.85 0-1.711-.217-2.5-.674l-.13-.075c-2.39-1.384-3.206-4.442-1.822-6.833 1.383-2.389 4.44-3.205 6.833-1.822l.13.075c2.39 1.384 3.206 4.442 1.822 6.833-.928 1.601-2.607 2.496-4.333 2.496z"/><path d="m384.518 411.384c-.85 0-1.711-.217-2.5-.674l-.13-.075c-2.39-1.384-3.206-4.442-1.822-6.833 1.383-2.389 4.44-3.205 6.832-1.822l.13.075c2.39 1.384 3.206 4.442 1.822 6.832-.927 1.602-2.606 2.497-4.332 2.497z"/></g><g><path d="m360.336 411.384c-1.726 0-3.405-.895-4.332-2.496-1.384-2.39-.568-5.449 1.822-6.832l.13-.075c2.391-1.383 5.45-.568 6.833 1.822 1.384 2.39.568 5.449-1.822 6.833l-.13.075c-.79.456-1.651.673-2.501.673z"/><path d="m384.398 397.492c-1.726 0-3.405-.895-4.332-2.496-1.384-2.39-.568-5.449 1.822-6.833l.13-.075c2.391-1.383 5.449-.568 6.832 1.822 1.384 2.39.568 5.449-1.822 6.833l-.13.075c-.789.457-1.65.674-2.5.674z"/></g></g></g><g><g><g><g><path d="m252.164 424.245c-25.634 0-46.49-20.855-46.49-46.49s20.855-46.49 46.49-46.49h44.88c10.247 0 18.583-8.337 18.583-18.583 0-10.247-8.336-18.583-18.583-18.583h-82.088c-25.634 0-46.49-20.855-46.49-46.49s20.855-46.49 46.49-46.49h18.386c7.706 0 13.953 6.247 13.953 13.953s-6.247 13.953-13.953 13.953h-18.386c-10.247 0-18.583 8.336-18.583 18.583s8.337 18.583 18.583 18.583h82.088c25.634 0 46.49 20.855 46.49 46.49 0 25.634-20.855 46.49-46.49 46.49h-44.88c-10.247 0-18.583 8.337-18.583 18.583 0 10.247 8.337 18.583 18.583 18.583 7.706 0 13.953 6.247 13.953 13.953s-6.247 13.955-13.953 13.955z" fill="#fff"/></g></g><g><g><path d="m259.836 424.245c25.634 0 46.49-20.855 46.49-46.49s-20.855-46.49-46.49-46.49h-44.88c-10.247 0-18.583-8.337-18.583-18.583 0-10.247 8.337-18.583 18.583-18.583h82.088c25.634 0 46.49-20.855 46.49-46.49s-20.855-46.49-46.49-46.49h-18.386c-7.706 0-13.953 6.247-13.953 13.953s6.247 13.953 13.953 13.953h18.386c10.247 0 18.583 8.336 18.583 18.583s-8.336 18.583-18.583 18.583h-82.088c-25.634 0-46.49 20.855-46.49 46.49 0 25.634 20.855 46.49 46.49 46.49h44.88c10.247 0 18.583 8.337 18.583 18.583 0 10.247-8.337 18.583-18.583 18.583-7.706 0-13.953 6.247-13.953 13.953s6.247 13.955 13.953 13.955z" fill="#6583fe"/></g></g><g><ellipse cx="256" cy="61.634" fill="#fff" rx="22.749" ry="22.749" transform="matrix(.924 -.383 .383 .924 -4.1 102.659)"/></g><g fill="#fff"><g><g><path d="m425.49 93.727c0 11.25-9.12 20.37-20.37 20.37h-114.523c8.779-6.023 15.909-14.274 20.578-23.939 1.714-3.548 5.335-5.775 9.275-5.775h95.695c5.161 0 9.345 4.184 9.345 9.344z"/><path d="m381.219 114.097v9.344c0 11.25-9.12 20.37-20.37 20.37h-104.849v-19.006c12.839 0 24.758-3.952 34.597-10.708z"/><path d="m256 143.808h89.8v9.343c0 11.25-9.12 20.37-20.37 20.37h-69.43z"/></g><g><path d="m221.403 114.097h-114.523c-11.25 0-20.37-9.12-20.37-20.37 0-5.161 4.184-9.344 9.344-9.344h95.695c3.94 0 7.562 2.227 9.275 5.775 4.669 9.665 11.8 17.917 20.579 23.939z"/><path d="m256 124.806v19.006h-104.849c-11.25 0-20.37-9.12-20.37-20.37v-9.344h90.621c9.84 6.755 21.759 10.708 34.598 10.708z"/><path d="m256 143.808h-89.8v9.343c0 11.25 9.12 20.37 20.37 20.37h69.43z"/></g></g><path d="m298.537 229.026h-23.656c-10.428 0-18.881-8.454-18.881-18.882v-2.38c0-5.4 4.377-9.777 9.777-9.777h27.757c2.763 0 5.003 2.24 5.003 5.003z"/><path d="m213.463 229.026h23.656c10.428 0 18.882-8.454 18.882-18.882v-2.38c0-5.4-4.377-9.777-9.777-9.777h-27.757c-2.763 0-5.003 2.24-5.003 5.003v26.036z"/></g></g><g><g><path d="m312.471 302.376h29.895c-4.702-20.689-23.23-36.184-45.322-36.184h-82.088c-5.469 0-10.388-2.38-13.791-6.152h-30.993c5.451 19.616 23.456 34.059 44.785 34.059h82.088c6.431 0 12.092 3.296 15.426 8.277z" fill="#fff"/></g></g></g></g><g fill="#00c"><path d="m416.146 79.383h-95.695c-5.846 0-11.254 3.376-13.778 8.601-4.264 8.827-10.801 16.431-18.904 21.99 0 0-.001.001-.001.001s0 0-.001 0c-7.988 5.486-17.158 8.757-26.767 9.602v-30.194h20.247c2.761 0 5-2.239 5-5s-2.239-5-5-5h-3.936c4.017-4.814 6.438-11.004 6.438-17.749 0-15.301-12.448-27.749-27.749-27.749s-27.749 12.448-27.749 27.749c0 6.745 2.422 12.935 6.438 17.749h-3.936c-2.761 0-5 2.239-5 5s2.239 5 5 5h20.247v30.194c-9.609-.845-18.778-4.116-26.767-9.602 0 0 0 0-.001 0 0 0-.001-.001-.001-.001-8.104-5.559-14.641-13.163-18.904-21.99-2.524-5.225-7.932-8.601-13.778-8.601h-95.694c-7.91 0-14.344 6.435-14.344 14.344 0 13.989 11.381 25.37 25.37 25.37h18.901v4.344c0 13.989 11.381 25.37 25.37 25.37h10.048v4.34c0 13.989 11.381 25.37 25.37 25.37h64.43v15.273c-1.501-.515-3.104-.808-4.777-.808h-27.757c-2.937 0-5.574 1.28-7.405 3.302-26.576 1.999-47.594 24.24-47.594 51.32 0 12.333 4.362 23.664 11.62 32.539-7.508 9.182-11.62 20.616-11.62 32.533 0 24.247 16.852 44.621 39.455 50.056-1.484 4.851-2.247 9.884-2.247 15.018 0 28.001 22.471 50.837 50.325 51.46v12.066h-5.876c-2.761 0-5 2.239-5 5s2.239 5 5 5h5.876v11.488c0 2.761 2.239 5 5 5s5-2.239 5-5v-11.488h5.875c2.761 0 5-2.239 5-5s-2.239-5-5-5h-5.875v-12.066c27.854-.623 50.325-23.459 50.325-51.46 0-5.221-.787-10.26-2.239-15.012 22.777-5.5 39.447-26.27 39.447-50.061 0-12.336-4.364-23.669-11.625-32.546 4-4.906 7.115-10.565 9.072-16.538.859-2.625-.572-5.449-3.196-6.308-2.625-.859-5.448.572-6.308 3.196-1.468 4.483-3.755 8.743-6.669 12.505-4.672-3.864-10.041-6.908-15.879-8.941 4.141-4.251 6.699-10.052 6.699-16.441 0-10.752-7.235-19.839-17.09-22.667v-18.313c15.126 2.387 27.901 12.996 32.869 27.894.873 2.619 3.705 4.034 6.325 3.162 2.62-.874 4.035-3.705 3.162-6.325-6.616-19.842-24.4-33.551-44.972-35.092-1.831-2.01-4.46-3.281-7.386-3.281h-27.757c-1.673 0-3.276.293-4.777.808v-20.273-24.71h79.8v4.34c0 8.475-6.895 15.37-15.37 15.37h-40.33c-2.761 0-5 2.239-5 5s2.239 5 5 5h40.33c13.989 0 25.37-11.381 25.37-25.37v-4.34h10.049c13.989 0 25.37-11.381 25.37-25.37v-4.344h18.901c13.989 0 25.37-11.381 25.37-25.37-.001-7.909-6.436-14.344-14.345-14.344zm-177.895-17.749c0-9.787 7.962-17.749 17.749-17.749s17.749 7.962 17.749 17.749-7.962 17.749-17.749 17.749-17.749-7.962-17.749-17.749zm-146.741 32.094c0-2.396 1.949-4.344 4.344-4.344h95.695c2.034 0 3.908 1.158 4.773 2.95 2.977 6.162 6.893 11.817 11.577 16.764h-77.118-23.901c-8.475-.001-15.37-6.896-15.37-15.37zm44.271 29.713v-4.344h84.103c9.353 6.102 19.997 9.694 31.116 10.523v9.188h-84.8c-.012 0-.022.003-.034.003h-15.015c-8.475.001-15.37-6.894-15.37-15.37zm50.789 45.08c-8.475 0-15.37-6.895-15.37-15.37v-4.34h79.8v19.71zm28.386 92.671c-7.49 0-13.583-6.094-13.583-13.584s6.094-13.583 13.583-13.583h12.727 9.436c5.174 0 9.966-1.66 13.881-4.467v31.634zm3.51-58.205h27.757c2.634 0 4.777 2.143 4.777 4.777v2.38c0 7.654-6.227 13.882-13.881 13.882h-18.655zm-7.791 174.768c0-4.683.782-9.26 2.309-13.633.656.025 1.311.05 1.973.05h17.947c-2.718 3.843-4.322 8.528-4.322 13.583 0 10.141 6.435 18.801 15.435 22.124-1.975 2.991-3.134 6.567-3.134 10.412 0 2.794.624 5.441 1.714 7.831-18.279-4.331-31.922-20.782-31.922-40.367zm40.325-13.525v27.049c-6.946-.594-12.419-6.428-12.419-13.525s5.473-12.93 12.419-13.524zm10 .001c6.946.594 12.419 6.427 12.419 13.524s-5.473 12.931-12.419 13.525zm-1.164 55.014c-4.937 0-8.953-4.017-8.953-8.953 0-4.937 4.016-8.953 8.953-8.953 13.004 0 23.583-10.58 23.583-23.583s-10.579-23.583-23.583-23.583h-7.667c-.002 0-.003 0-.005 0-.007 0-.013 0-.019 0h-37.189c-22.878 0-41.49-18.612-41.49-41.49 0-9.25 3.075-18.139 8.711-25.394 4.676 3.87 10.049 6.918 15.894 8.953-4.141 4.251-6.699 10.052-6.699 16.441 0 13.004 10.579 23.583 23.583 23.583h37.208 7.672c22.878 0 41.489 18.612 41.489 41.49.001 22.876-18.611 41.489-41.488 41.489zm37.208-120.146c7.49 0 13.583 6.094 13.583 13.583 0 7.49-6.094 13.583-13.583 13.583h-36.044v-27.167h1.596 34.448zm-46.044 27.166h-36.044c-7.49 0-13.583-6.094-13.583-13.583 0-7.49 6.094-13.583 13.583-13.583h36.044zm54.172 27.105c-3.643-6.746-8.75-12.587-14.89-17.105h6.762c13.004 0 23.583-10.579 23.583-23.583s-10.579-23.583-23.583-23.583h-34.448-47.64c-22.878 0-41.49-18.612-41.49-41.49 0-20.667 15.195-37.834 34.997-40.96v18.293c-9.856 2.826-17.09 11.915-17.09 22.667 0 13.004 10.579 23.584 23.583 23.584h82.088c22.878 0 41.49 18.612 41.49 41.49 0 19.716-14.207 36.859-33.362 40.687zm5.455-105.761c0 7.49-6.094 13.584-13.583 13.584h-36.044v-31.634c3.915 2.808 8.707 4.467 13.881 4.467h22.172c7.486.005 13.574 6.096 13.574 13.583zm-44.85-44.622 27.76.003v21.036h-18.656c-7.654 0-13.881-6.228-13.881-13.882v-2.38c0-2.634 2.143-4.777 4.777-4.777zm110.442-79.546c0 8.475-6.895 15.37-15.37 15.37h-15.02c-.01 0-.019-.003-.029-.003h-84.8v-9.189c11.119-.829 21.763-4.421 31.116-10.523h84.103zm28.901-14.344h-23.901-77.118c4.684-4.947 8.6-10.602 11.577-16.764.865-1.792 2.739-2.95 4.773-2.95h95.695c2.396 0 4.344 1.949 4.344 4.344 0 8.475-6.895 15.37-15.37 15.37z"/><path d="m272.947 215.061.134.078c.789.456 1.649.672 2.498.672 1.727 0 3.407-.896 4.333-2.498 1.382-2.391.564-5.449-1.826-6.831l-.134-.078c-2.393-1.382-5.449-.564-6.832 1.826-1.381 2.39-.563 5.448 1.827 6.831z"/><path d="m240.878 213.312c1.382-2.391.564-5.449-1.826-6.831l-.134-.078c-2.392-1.382-5.449-.564-6.832 1.826-1.382 2.391-.564 5.449 1.826 6.831l.134.078c.788.456 1.649.672 2.498.672 1.728.001 3.408-.895 4.334-2.498z"/></g></g></svg>