<svg id="Capa_1" enable-background="new 0 0 512 512" height="512" viewBox="0 0 512 512" width="512" xmlns="http://www.w3.org/2000/svg" xmlns:xlink="http://www.w3.org/1999/xlink"><linearGradient id="SVGID_1_" gradientUnits="userSpaceOnUse" x1="68.572" x2="395.005" y1="430.558" y2="41.53"><stop offset="0" stop-color="#d2deff" stop-opacity="0"/><stop offset="1" stop-color="#b7c5ff"/></linearGradient><g><path d="m16.074 302.88c18.727 64.003 72.707 194.564 163.922 182.845 91.486-11.755 55.758-129.725 139.508-145.894 36.867-7.118 61.857 56.689 98.806 54.704 47.588-2.557 71.81-49.663 85.108-89.264 28.197-83.968-14.029-226.352-112.858-251.011-86.245-21.519-96.333 83.855-171.322 53.248-42.149-17.203-37.938-68.576-89.272-78.942-155.299-31.36-138.811 189.15-113.892 274.314z" fill="url(#SVGID_1_)"/><g><g><g fill="#2626bc" opacity=".1"><path d="m120.791 288.034h-18.582c-2.761 0-5 2.238-5 5s2.239 5 5 5h18.582c2.761 0 5-2.238 5-5 0-2.761-2.239-5-5-5z"/><path d="m120.791 306.416h-58.583c-2.761 0-5 2.238-5 5s2.239 5 5 5h58.582c2.761 0 5-2.238 5-5 .001-2.762-2.238-5-4.999-5z"/><path d="m120.791 324.797h-58.583c-2.761 0-5 2.238-5 5s2.239 5 5 5h58.582c2.761 0 5-2.238 5-5 .001-2.762-2.238-5-4.999-5z"/><path d="m454.197 317.591h-68.718l17.653-117.568c5.24-34.896-21.786-66.283-57.074-66.283-14.564 0-27.79 5.375-37.896 14.193-11.39 9.939-25.937 15.508-41.054 15.508-3.731.041-7.644-.043-11.308-.586-6.702-45.683-46.049-80.756-93.592-80.756-52.248 0-94.604 42.356-94.604 94.604 0 44.06 30.12 81.085 70.894 91.607l25.917 172.603c2.228 14.84 14.977 25.818 29.984 25.818 15.865 0 29.047-12.23 30.235-28.05l2.896-38.576c1.499-19.966 18.136-35.401 38.159-35.401 20.022 0 36.66 15.435 38.159 35.401l2.896 38.576c1.188 15.82 14.37 28.05 30.235 28.05 15.007 0 27.755-10.978 29.984-25.818l5.93-39.493h81.305c5.523 0 10-4.477 10-10v-63.83c-.001-5.522-4.478-9.999-10.001-9.999z"/></g><g><path d="m346.058 108.74c-14.564 0-27.79 5.375-37.896 14.193-11.39 9.939-25.937 15.508-41.054 15.508h-2.841c-15.117 0-29.664-5.57-41.054-15.508-10.105-8.818-23.332-14.193-37.896-14.193-35.288 0-62.314 31.387-57.074 66.284l36.171 240.89c2.228 14.84 14.977 25.818 29.984 25.818 15.865 0 29.047-12.23 30.235-28.05l2.896-38.576c1.499-19.966 18.136-35.401 38.159-35.401 20.022 0 36.66 15.435 38.159 35.401l2.896 38.576c1.188 15.82 14.37 28.05 30.235 28.05 15.007 0 27.755-10.978 29.984-25.818l36.171-240.89c5.239-34.897-21.787-66.284-57.075-66.284z" fill="#fff"/><g><ellipse cx="162.209" cy="151.704" fill="#6583fe" rx="94.604" ry="94.604" transform="matrix(.707 -.707 .707 .707 -59.761 159.132)"/><circle cx="162.209" cy="151.704" fill="#fff" r="75.218"/></g><path d="m195.898 157.686c-2.335 1.387-5.435.628-6.84-1.78l-8.07-13.74c-.59-1.01-1.58-1.71-2.73-1.94l-7.12-1.4-9.06 17.79c-.41.8-.54 1.72-.36 2.6l5.39 26.97c.54 2.71-1.21 5.34-3.92 5.88-2.635.555-5.357-1.191-5.88-3.92l-5.4-26.97c-.61-3.07-.17-6.3 1.26-9.1l8.45-16.6c-2.8-2.14-4.77-5.3-5.36-8.91l-4.67-28.58c3.282-.378 6.674-.554 10.05-.5l4.49 27.47c.27 1.67 1.57 3.01 3.23 3.33l10.83 2.13c3.95.78 7.38 3.21 9.42 6.68l8.07 13.75c1.4 2.38.6 5.45-1.78 6.84z" fill="#00c"/></g><g><path d="m454.197 376.421h-113.46c-5.523 0-10-4.477-10-10v-63.83c0-5.523 4.477-10 10-10h113.459c5.523 0 10 4.477 10 10v63.83c.001 5.523-4.476 10-9.999 10z" fill="#6583fe"/><g fill="#00c"><path d="m120.791 263.034h-18.582c-2.761 0-5 2.238-5 5s2.239 5 5 5h18.582c2.761 0 5-2.238 5-5 0-2.761-2.239-5-5-5z"/><path d="m120.791 281.416h-58.583c-2.761 0-5 2.238-5 5s2.239 5 5 5h58.582c2.761 0 5-2.238 5-5 .001-2.762-2.238-5-4.999-5z"/><path d="m120.791 299.797h-58.583c-2.761 0-5 2.238-5 5s2.239 5 5 5h58.582c2.761 0 5-2.238 5-5 .001-2.762-2.238-5-4.999-5z"/><path d="m454.197 287.592h-20.208c-2.762 0-5 2.238-5 5s2.238 5 5 5h20.208c2.757 0 5 2.243 5 5v63.829c0 2.757-2.243 5-5 5h-113.46c-2.757 0-5-2.243-5-5v-63.829c0-2.757 2.243-5 5-5h64.151c2.762 0 5-2.238 5-5s-2.238-5-5-5h-13.603l16.791-111.826c2.714-18.073-2.568-36.383-14.494-50.232-11.925-13.85-29.247-21.793-47.523-21.793-15.158 0-29.784 5.478-41.184 15.425-10.551 9.206-23.963 14.276-37.767 14.276-2.209.008-4.823.018-7.013-.172-8.671-46.144-49.262-81.17-97.886-81.17-54.922 0-99.605 44.683-99.605 99.604s44.683 99.604 99.605 99.604 99.603-44.682 99.603-99.604c0-2.805-.123-5.582-.351-8.33 1.636.086 3.99.066 5.647.067 16.222 0 31.969-5.945 44.341-16.741 9.578-8.357 21.869-12.96 34.609-12.96 15.362 0 29.922 6.677 39.945 18.318 10.024 11.642 14.465 27.03 12.184 42.223l-17.014 113.311h-40.436c-8.272 0-15 6.728-15 15v63.829c0 8.271 6.728 15 15 15h26.348l-5.068 33.751c-1.876 12.492-12.407 21.56-25.04 21.56-13.172 0-24.263-10.289-25.248-23.424l-2.896-38.575c-1.686-22.445-20.637-40.027-43.145-40.027s-41.459 17.582-43.145 40.027l-2.896 38.575c-.986 13.135-12.077 23.424-25.249 23.424-12.633 0-23.163-9.067-25.039-21.56l-20.203-134.548c-.411-2.731-2.956-4.616-5.688-4.202-2.73.41-4.612 2.956-4.202 5.687l20.203 134.548c2.617 17.427 17.306 30.075 34.928 30.075 18.374 0 33.845-14.353 35.221-32.676l2.896-38.575c1.296-17.257 15.867-30.775 33.173-30.775s31.877 13.519 33.172 30.775l2.896 38.575c1.376 18.323 16.847 32.676 35.221 32.676 17.622 0 32.312-12.648 34.929-30.075l5.29-35.235h77c8.272 0 15-6.729 15-15v-63.829c.002-8.273-6.726-15.001-14.998-15.001zm-291.988-46.284c-49.408 0-89.605-40.196-89.605-89.604s40.196-89.604 89.605-89.604c49.408 0 89.604 40.196 89.604 89.604 0 49.407-40.196 89.604-89.604 89.604z"/></g><g><g><path d="m435.02 319.562h-18.583c-2.762 0-5-2.239-5-5s2.238-5 5-5h18.583c2.762 0 5 2.239 5 5s-2.238 5-5 5z" fill="#00c"/></g><g><path d="m435.02 337.943h-58.583c-2.762 0-5-2.239-5-5s2.238-5 5-5h58.583c2.762 0 5 2.239 5 5s-2.238 5-5 5z" fill="#00c"/></g><g><path d="m435.02 356.325h-58.583c-2.762 0-5-2.239-5-5s2.238-5 5-5h58.583c2.762 0 5 2.239 5 5s-2.238 5-5 5z" fill="#00c"/></g></g></g></g><g fill="#6583fe"><path d="m113.541 379.806c-2.761 0-5-2.238-5-5 0-3.492-2.841-6.333-6.333-6.333-2.761 0-5-2.238-5-5s2.239-5 5-5c3.492 0 6.333-2.841 6.333-6.333 0-2.762 2.239-5 5-5s5 2.238 5 5c0 3.492 2.841 6.333 6.333 6.333 2.761 0 5 2.238 5 5s-2.239 5-5 5c-3.492 0-6.333 2.841-6.333 6.333 0 2.761-2.239 5-5 5z"/><path d="m265.9 83.552c-2.762 0-5-2.238-5-5 0-3.492-2.841-6.333-6.333-6.333-2.761 0-5-2.238-5-5s2.239-5 5-5c3.492 0 6.333-2.841 6.333-6.333 0-2.762 2.238-5 5-5s5 2.238 5 5c0 3.492 2.842 6.333 6.334 6.333 2.762 0 5 2.238 5 5s-2.238 5-5 5c-3.492 0-6.334 2.841-6.334 6.333 0 2.762-2.238 5-5 5z"/><path d="m309.404 92.165c-2.762 0-5-2.238-5-5 0-3.492-2.841-6.333-6.333-6.333-2.762 0-5-2.238-5-5s2.238-5 5-5c3.492 0 6.333-2.841 6.333-6.333 0-2.762 2.238-5 5-5s5 2.238 5 5c0 3.492 2.841 6.333 6.333 6.333 2.762 0 5 2.238 5 5s-2.238 5-5 5c-3.492 0-6.333 2.841-6.333 6.333 0 2.762-2.238 5-5 5z"/><g><g><path d="m83.82 387.873c-2.761 0-5-2.238-5-5v-.15c0-2.762 2.239-5 5-5s5 2.238 5 5v.15c0 2.762-2.238 5-5 5z"/><path d="m83.82 415.657c-2.761 0-5-2.238-5-5v-.15c0-2.762 2.239-5 5-5s5 2.238 5 5v.15c0 2.762-2.238 5-5 5z"/></g><g><path d="m71.85 394.782c-.848 0-1.706-.216-2.493-.67l-.13-.075c-2.392-1.38-3.213-4.438-1.833-6.829 1.38-2.393 4.436-3.214 6.829-1.833l.13.075c2.392 1.38 3.213 4.438 1.833 6.829-.926 1.606-2.607 2.503-4.336 2.503z"/><path d="m95.911 408.675c-.85 0-1.711-.217-2.501-.674l-.13-.075c-2.39-1.384-3.206-4.442-1.822-6.832 1.383-2.39 4.441-3.207 6.832-1.822l.13.075c2.39 1.384 3.206 4.442 1.822 6.832-.926 1.601-2.605 2.496-4.331 2.496z"/></g><g><path d="m71.729 408.675c-1.729 0-3.41-.897-4.336-2.503-1.38-2.392-.559-5.449 1.833-6.829l.13-.075c2.392-1.382 5.45-.56 6.829 1.833 1.38 2.392.559 5.449-1.833 6.829l-.13.075c-.786.454-1.646.67-2.493.67z"/><path d="m95.791 394.782c-1.726 0-3.405-.895-4.332-2.496-1.384-2.39-.568-5.448 1.822-6.832l.13-.075c2.392-1.385 5.449-.568 6.833 1.822s.568 5.448-1.822 6.832l-.13.075c-.79.457-1.651.674-2.501.674z"/></g></g><g><g><path d="m437.824 231.14c-2.762 0-5-2.238-5-5v-.15c0-2.762 2.238-5 5-5s5 2.238 5 5v.15c0 2.761-2.238 5-5 5z"/><path d="m437.824 258.924c-2.762 0-5-2.238-5-5v-.15c0-2.762 2.238-5 5-5s5 2.238 5 5v.15c0 2.762-2.238 5-5 5z"/></g><g><path d="m425.854 238.05c-.851 0-1.712-.217-2.5-.674l-.13-.075c-2.39-1.384-3.206-4.442-1.822-6.832 1.384-2.391 4.446-3.206 6.832-1.822l.13.075c2.39 1.384 3.206 4.442 1.822 6.832-.927 1.601-2.607 2.496-4.332 2.496z"/><path d="m449.915 251.941c-.85 0-1.712-.217-2.5-.674l-.13-.075c-2.39-1.384-3.206-4.442-1.822-6.832 1.384-2.392 4.445-3.207 6.832-1.822l.13.075c2.39 1.384 3.206 4.442 1.822 6.832-.927 1.602-2.606 2.496-4.332 2.496z"/></g><g><path d="m425.733 251.941c-1.727 0-3.405-.895-4.332-2.496-1.384-2.39-.567-5.448 1.822-6.832l.13-.075c2.391-1.386 5.449-.567 6.832 1.822 1.384 2.39.567 5.448-1.822 6.832l-.13.075c-.788.458-1.65.674-2.5.674z"/><path d="m449.795 238.05c-1.727 0-3.405-.895-4.332-2.496-1.384-2.39-.567-5.448 1.822-6.832l.13-.075c2.39-1.386 5.449-.567 6.832 1.822 1.384 2.39.567 5.448-1.822 6.832l-.13.075c-.788.457-1.65.674-2.5.674z"/></g></g></g></g></g></svg>