<svg id="Capa_1" enable-background="new 0 0 512 512" height="512" viewBox="0 0 512 512" width="512" xmlns="http://www.w3.org/2000/svg" xmlns:xlink="http://www.w3.org/1999/xlink"><linearGradient id="SVGID_1_" gradientUnits="userSpaceOnUse" x1="96.524" x2="444.685" y1="455.72" y2="40.797"><stop offset="0" stop-color="#d2deff" stop-opacity="0"/><stop offset="1" stop-color="#b7c5ff"/></linearGradient><g><path d="m4.896 326.28c17.448 172.871 292.417 167.142 420.803 136.265 82.47-19.834 87.596-59.472 86.106-144.001-.96-54.486 3.443-198.725-32.004-244.123-54.448-69.733-103.228-25.998-170.656-3.235-86.488 29.197-120.189-22.932-202.476-21.38-120.641 2.278-110.778 187.252-101.773 276.474z" fill="url(#SVGID_1_)"/><g><g><path d="m428.306 95.999h-113.459c-5.523 0-10 4.477-10 10v16.418c-16.644-5.131-34.324-7.898-52.652-7.898-98.583 0-178.501 79.918-178.501 178.501s79.918 178.501 178.501 178.501 178.501-79.918 178.501-178.501c0-42.968-15.186-82.388-40.478-113.192h38.089c5.523 0 10-4.477 10-10v-63.83c-.001-5.521-4.478-9.999-10.001-9.999z" fill="#2626bc" opacity=".1"/><g><circle cx="252.195" cy="268.021" fill="#6583fe" r="178.501"/><path d="m407.315 179.641h-92.47c-5.52 0-10-4.48-10-10v-63.83c0-2.91 1.25-5.54 3.24-7.36 42.25 13.91 77.52 43.18 99.23 81.19z" fill="#4d4dff"/><circle cx="252.195" cy="268.021" fill="#fff" r="156.67"/><path d="m381.565 179.641h-66.72c-5.52 0-10-4.48-10-10v-49.22c31.42 11.2 58.21 32.16 76.72 59.22z" fill="#d9d9ff"/><circle cx="312.44" cy="288.342" fill="#fff" r="53.965"/><path d="m186.509 388.733c0 6.978-1.321 13.647-3.735 19.769-30.365-15.023-55.154-39.603-70.441-69.812 6.241-2.524 13.064-3.917 20.216-3.917 29.8 0 53.96 24.16 53.96 53.96z" fill="#fff"/><path d="m271.49 140.632c0 43.775-35.485 79.269-79.26 79.269-29.727 0-55.628-16.371-69.193-40.586 28.251-41.051 75.561-67.963 129.157-67.963 4.701 0 9.347.21 13.939.61 3.462 8.891 5.357 18.558 5.357 28.67z" fill="#fff"/><g><path d="m312.439 347.307c-32.514 0-58.965-26.452-58.965-58.965 0-32.514 26.451-58.965 58.965-58.965s58.965 26.452 58.965 58.965c0 32.514-26.451 58.965-58.965 58.965zm0-107.93c-26.999 0-48.965 21.966-48.965 48.965s21.966 48.965 48.965 48.965 48.965-21.965 48.965-48.965-21.966-48.965-48.965-48.965z" fill="#00c"/></g><g><path d="m182.773 413.504c-.61 0-1.23-.113-1.833-.35-2.569-1.013-3.83-3.917-2.817-6.485 2.247-5.699 3.387-11.734 3.387-17.936 0-26.997-21.964-48.96-48.961-48.96-6.341 0-12.512 1.195-18.341 3.553-2.56 1.036-5.475-.201-6.511-2.761-1.035-2.56.201-5.475 2.762-6.51 7.025-2.841 14.458-4.282 22.09-4.282 32.511 0 58.961 26.449 58.961 58.96 0 7.463-1.374 14.731-4.084 21.603-.776 1.967-2.659 3.167-4.653 3.168z" fill="#00c"/></g><g><path d="m192.23 224.901c-30.462 0-58.646-16.531-73.555-43.143-1.35-2.409-.49-5.456 1.919-6.806 2.407-1.35 5.455-.491 6.806 1.918 13.141 23.458 37.982 38.03 64.83 38.03 40.947 0 74.26-33.317 74.26-74.269 0-9.272-1.688-18.308-5.016-26.856-1.002-2.573.272-5.471 2.845-6.473 2.575-1.002 5.472.271 6.474 2.845 3.78 9.709 5.697 19.966 5.697 30.484 0 46.467-37.799 84.27-84.26 84.27z" fill="#00c"/></g><g><path d="m235.266 244.309h-14.025c-1.943 0-3.752-.998-4.789-2.642-1.036-1.645-1.156-3.706-.317-5.46l3.137-6.56h-7.593c-1.961 0-3.783-1.016-4.815-2.684-1.031-1.669-1.125-3.753-.249-5.507l3.554-7.108h-6.141c-3.127 0-5.661-2.535-5.661-5.661s2.534-5.66 5.661-5.66h15.3c1.961 0 3.783 1.016 4.815 2.684 1.032 1.669 1.126 3.753.249 5.507l-3.554 7.108h7.416c1.945 0 3.752.998 4.789 2.642 1.036 1.645 1.156 3.706.317 5.46l-3.138 6.56h5.044c3.126 0 5.66 2.535 5.66 5.66.001 3.126-2.533 5.661-5.66 5.661z" fill="#6583fe"/></g><g><path d="m268.4 337.252 9.917-9.917c1.374-1.374 3.359-1.948 5.255-1.518 1.896.431 3.439 1.803 4.085 3.637l2.42 6.858 5.369-5.369c1.387-1.387 3.394-1.957 5.303-1.507 1.909.451 3.45 1.858 4.07 3.718l2.513 7.54 4.343-4.343c2.211-2.211 5.795-2.21 8.005 0s2.211 5.794 0 8.005l-10.819 10.819c-1.387 1.387-3.394 1.957-5.303 1.507-1.909-.451-3.449-1.858-4.07-3.718l-2.513-7.54-5.244 5.244c-1.375 1.375-3.359 1.948-5.255 1.518-1.896-.431-3.438-1.803-4.085-3.637l-2.42-6.858-3.566 3.566c-2.211 2.211-5.795 2.21-8.005 0s-2.21-5.794 0-8.005z" fill="#6583fe"/></g><g fill="#6583fe"><path d="m298.414 253.714c-7.746 0-14.025-6.279-14.025-14.025v-17.213c0-7.746 6.279-14.025 14.025-14.025 7.746 0 14.025 6.279 14.025 14.025v17.213c.001 7.746-6.279 14.025-14.025 14.025z"/><path d="m203.644 273.654c5.477-5.477 14.357-5.477 19.835 0l12.171 12.171c5.477 5.477 5.477 14.357 0 19.835-5.477 5.477-14.357 5.477-19.835 0l-12.171-12.171c-5.477-5.477-5.477-14.358 0-19.835z"/><circle cx="258.252" cy="273.477" r="8.491"/><circle cx="183.741" cy="259.531" r="8.491"/><circle cx="287.305" cy="294.311" r="8.491"/><circle cx="350.546" cy="325.677" r="8.491"/></g><g><path d="m155.519 292.243c-2.714 2.714-7.081 3.065-10.212.671-3.41-2.608-4.06-7.486-1.453-10.895l7.297-9.542c2.608-3.42 7.486-4.06 10.896-1.453s4.06 7.486 1.453 10.895l-7.297 9.541c-.214.28-.443.541-.684.783z" fill="#6583fe"/></g><g><path d="m242.109 373.968c-3.838 0-7.174-2.84-7.695-6.746-.568-4.255 2.423-8.164 6.677-8.731l11.906-1.587c4.263-.574 8.164 2.422 8.732 6.677s-2.423 8.164-6.677 8.731l-11.906 1.587c-.349.046-.695.069-1.037.069z" fill="#6583fe"/></g><g><path d="m333.411 202.489c0-3.838 2.84-7.174 6.746-7.695 4.255-.568 8.164 2.423 8.731 6.677l1.587 11.906c.574 4.263-2.422 8.164-6.677 8.732s-8.164-2.423-8.731-6.677l-1.587-11.906c-.046-.349-.069-.695-.069-1.037z" fill="#6583fe"/></g><circle cx="258.252" cy="177.05" fill="#6583fe" r="29.054"/><circle cx="256.181" cy="178.514" fill="#fff" r="10.55"/><ellipse cx="333.411" cy="278.839" fill="#6583fe" rx="19.674" ry="10.818"/><ellipse cx="203.145" cy="345.919" fill="#6583fe" rx="13.522" ry="7.435" transform="matrix(.707 -.707 .707 .707 -185.102 244.962)"/><g><path d="m151.062 234.378c-.33 0-.663-.027-.999-.082-3.322-.548-5.571-3.685-5.024-7.007l2.263-13.732c.323-1.959 1.58-3.638 3.369-4.5 1.786-.861 3.884-.801 5.618.168l12.301 6.866c2.94 1.642 3.994 5.355 2.353 8.295-1.64 2.939-5.352 3.992-8.294 2.352l-4.726-2.638-.853 5.172c-.493 2.986-3.078 5.106-6.008 5.106z" fill="#6583fe"/></g></g><path d="m428.306 154.829h-113.459c-5.523 0-10-4.477-10-10v-63.83c0-5.523 4.477-10 10-10h113.459c5.523 0 10 4.477 10 10v63.83c0 5.523-4.477 10-10 10z" fill="#fff"/><path d="m428.307 65.999h-61.557c-2.762 0-5 2.239-5 5s2.238 5 5 5h61.557c2.757 0 5 2.243 5 5v63.83c0 2.757-2.243 5-5 5h-113.46c-2.757 0-5-2.243-5-5v-63.83c0-2.757 2.243-5 5-5h22.803c2.762 0 5-2.239 5-5s-2.238-5-5-5h-22.803c-8.271 0-15 6.729-15 15v9.777c-15.473-4.149-31.48-6.256-47.651-6.256-101.184 0-183.502 82.318-183.502 183.502 0 101.183 82.318 183.501 183.502 183.501 101.183 0 183.501-82.318 183.501-183.501 0-29.273-7.064-58.396-20.427-84.219-1.268-2.454-4.289-3.413-6.738-2.143-2.452 1.269-3.412 4.286-2.143 6.738 12.812 24.758 19.308 51.547 19.308 79.624 0 95.669-77.832 173.501-173.501 173.501s-173.502-77.832-173.502-173.501 77.832-173.502 173.501-173.502c16.202 0 32.221 2.248 47.651 6.645v43.664c0 8.271 6.729 15 15 15h113.46c8.272 0 15-6.729 15-15v-63.83c.001-8.271-6.728-15-14.999-15z" fill="#00c"/><g><g><path d="m409.129 97.97h-18.583c-2.762 0-5-2.239-5-5s2.238-5 5-5h18.583c2.762 0 5 2.239 5 5s-2.238 5-5 5z" fill="#00c"/></g><g><path d="m409.129 116.351h-58.583c-2.762 0-5-2.239-5-5s2.238-5 5-5h58.583c2.762 0 5 2.239 5 5 0 2.762-2.238 5-5 5z" fill="#00c"/></g><g><path d="m409.129 134.733h-58.583c-2.762 0-5-2.239-5-5s2.238-5 5-5h58.583c2.762 0 5 2.239 5 5s-2.238 5-5 5z" fill="#00c"/></g></g></g><g fill="#6583fe"><g><g><path d="m420.961 406.619c-2.762 0-5-2.239-5-5v-.15c0-2.761 2.238-5 5-5s5 2.239 5 5v.15c0 2.761-2.238 5-5 5z"/><path d="m420.961 434.403c-2.762 0-5-2.239-5-5v-.15c0-2.761 2.238-5 5-5s5 2.239 5 5v.15c0 2.761-2.238 5-5 5z"/></g><g><path d="m408.99 413.528c-.851 0-1.712-.217-2.5-.674l-.13-.075c-2.39-1.384-3.206-4.442-1.822-6.832s4.446-3.205 6.832-1.822l.13.075c2.39 1.384 3.206 4.442 1.822 6.833-.927 1.6-2.606 2.495-4.332 2.495z"/><path d="m433.052 427.42c-.851 0-1.712-.217-2.5-.674l-.13-.075c-2.39-1.384-3.206-4.442-1.822-6.832 1.384-2.389 4.445-3.205 6.832-1.822l.13.075c2.39 1.384 3.206 4.442 1.822 6.832-.927 1.601-2.607 2.496-4.332 2.496z"/></g><g><path d="m408.87 427.42c-1.727 0-3.405-.895-4.332-2.496-1.384-2.39-.567-5.449 1.822-6.832l.13-.075c2.39-1.384 5.449-.567 6.832 1.822 1.384 2.39.567 5.449-1.822 6.832l-.13.075c-.788.457-1.65.674-2.5.674z"/><path d="m432.932 413.528c-1.727 0-3.405-.895-4.332-2.496-1.384-2.39-.567-5.449 1.822-6.833l.13-.075c2.389-1.384 5.449-.567 6.832 1.822 1.384 2.39.567 5.449-1.822 6.832l-.13.075c-.788.458-1.651.675-2.5.675z"/></g></g><g><g><path d="m458.583 185.908c-2.762 0-5-2.239-5-5v-.15c0-2.761 2.238-5 5-5s5 2.239 5 5v.15c0 2.761-2.238 5-5 5z"/><path d="m458.583 213.692c-2.762 0-5-2.239-5-5v-.15c0-2.761 2.238-5 5-5s5 2.239 5 5v.15c0 2.761-2.238 5-5 5z"/></g><g><path d="m446.612 192.817c-.851 0-1.712-.217-2.5-.674l-.13-.075c-2.39-1.384-3.206-4.442-1.822-6.833 1.384-2.39 4.444-3.205 6.832-1.822l.13.075c2.39 1.384 3.206 4.442 1.822 6.833-.926 1.601-2.606 2.496-4.332 2.496z"/><path d="m470.674 206.709c-.846 0-1.702-.215-2.488-.667l-.13-.075c-2.394-1.376-3.218-4.433-1.841-6.827s4.432-3.219 6.827-1.841l.13.075c2.393 1.376 3.218 4.433 1.841 6.827-.925 1.608-2.608 2.508-4.339 2.508z"/></g><g><path d="m446.492 206.709c-1.732 0-3.414-.9-4.339-2.508-1.377-2.394-.553-5.451 1.841-6.827l.13-.075c2.396-1.377 5.451-.552 6.827 1.841 1.377 2.394.553 5.451-1.841 6.827l-.13.075c-.786.452-1.642.667-2.488.667z"/><path d="m470.554 192.817c-1.727 0-3.405-.895-4.332-2.496-1.384-2.39-.567-5.449 1.822-6.833l.13-.075c2.39-1.384 5.449-.567 6.832 1.822 1.384 2.39.567 5.449-1.822 6.833l-.13.075c-.788.457-1.651.674-2.5.674z"/></g></g><path d="m79.463 151.066c-2.762 0-5-2.239-5-5 0-3.492-2.842-6.334-6.334-6.334-2.762 0-5-2.239-5-5s2.238-5 5-5c3.492 0 6.334-2.841 6.334-6.333 0-2.761 2.238-5 5-5s5 2.239 5 5c0 3.492 2.841 6.333 6.333 6.333 2.762 0 5 2.239 5 5s-2.238 5-5 5c-3.492 0-6.333 2.841-6.333 6.334 0 2.762-2.238 5-5 5z"/><path d="m278.814 65.224c-2.762 0-5-2.239-5-5 0-3.492-2.841-6.333-6.333-6.333-2.762 0-5-2.239-5-5s2.238-5 5-5c3.492 0 6.333-2.841 6.333-6.333 0-2.761 2.238-5 5-5s5 2.239 5 5c0 3.492 2.842 6.333 6.334 6.333 2.762 0 5 2.239 5 5s-2.238 5-5 5c-3.492 0-6.334 2.841-6.334 6.333 0 2.761-2.238 5-5 5z"/><path d="m376.513 462.856c-2.762 0-5-2.239-5-5 0-3.492-2.841-6.333-6.333-6.333-2.762 0-5-2.239-5-5s2.238-5 5-5c3.492 0 6.333-2.841 6.333-6.333 0-2.761 2.238-5 5-5s5 2.239 5 5c0 3.492 2.841 6.333 6.333 6.333 2.762 0 5 2.239 5 5s-2.238 5-5 5c-3.492 0-6.333 2.841-6.333 6.333 0 2.761-2.239 5-5 5z"/></g></g></g></svg>