<svg id="Capa_1" enable-background="new 0 0 512 512" height="512" viewBox="0 0 512 512" width="512" xmlns="http://www.w3.org/2000/svg" xmlns:xlink="http://www.w3.org/1999/xlink"><linearGradient id="SVGID_1_" gradientUnits="userSpaceOnUse" x1="23.821" x2="459.531" y1="343.269" y2="91.711"><stop offset="0" stop-color="#d2deff" stop-opacity="0"/><stop offset="1" stop-color="#b7c5ff"/></linearGradient><g><path d="m16.074 302.88c18.727 64.003 72.707 194.564 163.922 182.844 91.486-11.754 55.758-129.724 139.508-145.893 36.867-7.118 61.857 56.689 98.806 54.704 47.588-2.557 71.81-49.663 85.108-89.264 28.197-83.968-14.029-226.352-112.858-251.011-86.245-21.519-96.332 83.855-171.322 53.248-42.149-17.203-37.938-68.576-89.272-78.942-155.299-31.36-138.811 189.15-113.892 274.314z" fill="url(#SVGID_1_)"/><g><g><g opacity=".1"><g><path d="m372.548 402.666c33.039.003 65.607-15.297 86.468-44.101 34.554-47.707 23.891-114.392-23.815-148.946-52.411-37.961-114.378-58.026-179.201-58.026-64.825 0-126.794 20.065-179.203 58.027-47.706 34.556-58.367 101.241-23.812 148.947 34.554 47.708 101.244 58.366 148.945 23.812 15.779-11.428 34.477-17.47 54.07-17.47 19.592 0 38.29 6.041 54.07 17.471 18.904 13.692 40.796 20.284 62.478 20.286z" fill="#2626bc"/></g><g><circle cx="355.596" cy="174.145" fill="#2626bc" r="69.494"/></g><g><g><path d="m285.366 410.918h-18.583c-2.762 0-5-2.239-5-5s2.238-5 5-5h18.583c2.762 0 5 2.239 5 5s-2.238 5-5 5z" fill="#2626bc"/></g><g><path d="m325.366 429.3h-58.583c-2.762 0-5-2.239-5-5s2.238-5 5-5h58.583c2.762 0 5 2.239 5 5s-2.238 5-5 5z" fill="#2626bc"/></g><g><path d="m325.366 447.681h-58.583c-2.762 0-5-2.239-5-5s2.238-5 5-5h58.583c2.762 0 5 2.239 5 5s-2.238 5-5 5z" fill="#2626bc"/></g></g></g><g><g><path d="m372.548 377.666c33.039.003 65.607-15.297 86.468-44.101 34.554-47.707 23.891-114.392-23.815-148.946-52.411-37.961-114.378-58.026-179.201-58.026-64.825 0-126.794 20.065-179.203 58.027-47.706 34.556-58.367 101.241-23.812 148.947 34.554 47.708 101.244 58.366 148.945 23.812 15.779-11.428 34.477-17.47 54.07-17.47 19.592 0 38.29 6.041 54.07 17.471 18.904 13.692 40.796 20.284 62.478 20.286z" fill="#6583fe"/><path d="m78.171 332.383c-3.246-3.247-6.27-6.795-8.988-10.548-13.579-18.747-19.045-41.66-15.391-64.516s15.991-42.923 34.737-56.502c48.975-35.474 106.885-54.225 167.471-54.225 60.582 0 118.492 18.75 167.469 54.224 3.753 2.719 7.301 5.742 10.546 8.987 14.394 14.394 23.266 33.571 24.98 53.998 1.731 20.63-4.014 41.238-16.177 58.031-16.252 22.44-42.521 35.835-70.268 35.833-18.313-.001-35.862-5.7-50.748-16.482-19.212-13.917-41.967-21.274-65.801-21.274-23.837 0-46.591 7.356-65.803 21.273-16.793 12.163-37.401 17.91-58.03 16.181-20.424-1.713-39.602-10.585-53.995-24.977-.001-.002-.001-.001-.002-.003z" fill="#fff"/></g><g><path d="m203.834 297.717-27.114 27.114c-4.4 4.401-11.299 5.04-16.452 1.551-7.354-4.98-14.768-11.083-21.857-18.172s-13.192-14.503-18.172-21.857c-3.49-5.153-2.85-12.051 1.551-16.451l27.114-27.114c4.401-4.4 11.299-5.04 16.452-1.551 7.354 4.98 14.768 11.084 21.857 18.172 7.088 7.088 13.192 14.503 18.172 21.857 3.49 5.152 2.85 12.05-1.551 16.451z" fill="#fff"/><path d="m193.962 266.581-48.374 48.374c-2.426-2.138-4.817-4.391-7.179-6.754-2.357-2.357-4.61-4.748-6.742-7.168l48.374-48.374c2.42 2.132 4.811 4.386 7.168 6.742 2.362 2.363 4.615 4.754 6.753 7.18z" fill="#6583fe"/><g><path d="m167.551 333.614c-3.5 0-7.02-1.016-10.086-3.092-7.838-5.308-15.438-11.625-22.589-18.776-7.152-7.152-13.47-14.752-18.775-22.588-4.829-7.128-3.923-16.713 2.155-22.791l27.114-27.114c6.077-6.076 15.661-6.983 22.79-2.155 7.838 5.308 15.438 11.625 22.589 18.776 7.15 7.15 13.468 14.75 18.775 22.588 4.828 7.129 3.922 16.714-2.155 22.791l-27.114 27.114c-3.463 3.463-8.065 5.247-12.704 5.247zm-9.484-89.613c-2.056 0-4.094.789-5.627 2.322l-27.114 27.114c-2.692 2.693-3.091 6.946-.946 10.112 4.952 7.313 10.862 14.42 17.567 21.125 6.703 6.704 13.811 12.614 21.125 17.567 3.167 2.145 7.419 1.746 10.111-.946l27.115-27.114c2.692-2.693 3.09-6.946.946-10.112-4.953-7.314-10.863-14.421-17.567-21.125-6.703-6.704-13.811-12.614-21.125-17.567-1.363-.924-2.929-1.376-4.485-1.376zm45.767 53.716h.01z" fill="#00c"/></g></g><g><path d="m159.19 327.28c0 8.98-.84 17.55-2.34 25.37-.24 1.25-.67 2.42-1.27 3.48-7.66 1.46-15.53 1.89-23.41 1.23-11.77-.99-23.12-4.35-33.38-9.78-.96-6.4-1.48-13.22-1.48-20.3 0-8.99.84-17.56 2.34-25.38 1.05-5.48 5.83-9.44 11.41-9.44h34.38c5.58 0 10.36 3.96 11.41 9.44 1.5 7.82 2.34 16.39 2.34 25.38z" fill="#fff"/><path d="m158.918 336.101h-61.33c-.182-2.893-.27-5.837-.27-8.832 0-2.988.087-5.932.27-8.818h61.33c.182 2.886.27 5.83.27 8.818 0 2.995-.088 5.939-.27 8.832z" fill="#6583fe"/><g><path d="m139.376 362.661c-2.543 0-5.086-.106-7.623-.319-12.432-1.045-24.309-4.525-35.302-10.343-1.403-.743-2.37-2.108-2.606-3.678-1.019-6.79-1.535-13.869-1.535-21.042 0-9.062.817-17.918 2.43-26.322 1.498-7.821 8.362-13.498 16.32-13.498h34.38c7.957 0 14.821 5.677 16.32 13.499 1.612 8.403 2.43 17.259 2.43 26.321 0 9.056-.817 17.908-2.43 26.312-.341 1.776-.956 3.457-1.829 5-.723 1.279-1.972 2.175-3.415 2.45-5.658 1.079-11.398 1.62-17.14 1.62zm16.204-6.531h.01zm-52.197-11.82c9.158 4.495 18.971 7.206 29.206 8.067 6.454.541 12.952.308 19.355-.691 1.49-7.777 2.246-15.988 2.246-24.406 0-8.432-.757-16.654-2.25-24.438-.599-3.119-3.332-5.382-6.5-5.382h-34.38c-3.169 0-5.902 2.263-6.499 5.381-1.494 7.785-2.251 16.007-2.251 24.439.001 5.789.361 11.506 1.073 17.03z" fill="#00c"/></g></g></g><g><circle cx="355.596" cy="149.145" fill="#6583fe" r="69.494"/><path d="m387.932 134.504h-17.695v-17.696c0-5.523-4.477-10-10-10h-9.282c-5.523 0-10 4.477-10 10v17.696h-17.695c-5.523 0-10 4.477-10 10v9.282c0 5.523 4.477 10 10 10h17.695v17.695c0 5.523 4.477 10 10 10h9.282c5.523 0 10-4.477 10-10v-17.695h17.695c5.523 0 10-4.477 10-10v-9.282c0-5.523-4.477-10-10-10z" fill="#fff"/></g><g fill="#00c"><path d="m438.135 180.569c-3.869-2.802-7.837-5.534-11.828-8.157 2.449-7.372 3.783-15.201 3.783-23.267 0-41.076-33.418-74.494-74.494-74.494s-74.494 33.417-74.494 74.494c0 34.906 24.746 65.537 58.841 72.832 2.702.58 5.357-1.142 5.936-3.843.577-2.7-1.143-5.358-3.844-5.936-29.513-6.315-50.933-32.833-50.933-63.054 0-35.562 28.932-64.494 64.494-64.494s64.494 28.932 64.494 64.494c0 30.274-21.465 56.802-51.038 63.078-2.701.573-4.426 3.228-3.853 5.929.499 2.351 2.574 3.963 4.886 3.963.344 0 .693-.036 1.043-.11 22.82-4.843 41.447-20.129 51.311-40.162 3.316 2.21 6.608 4.491 9.83 6.825 45.396 32.881 55.58 96.566 22.698 141.964-19.064 26.322-49.868 42.034-82.409 42.034-.002 0-.007 0-.009 0-21.493-.001-42.083-6.687-59.545-19.334-16.638-12.052-36.35-18.422-57.003-18.422-20.655 0-40.366 6.37-57.004 18.42-21.99 15.93-48.87 22.339-75.681 18.054-26.814-4.287-50.354-18.759-66.282-40.75-32.882-45.396-22.701-109.081 22.696-141.964 50.646-36.685 110.5-56.416 173.09-57.061 2.761-.028 4.977-2.29 4.948-5.051-.028-2.744-2.262-4.948-4.999-4.948-.018 0-.035 0-.053.001-64.673.666-126.519 21.055-178.852 58.961-49.863 36.118-61.046 106.067-24.928 155.929 17.495 24.155 43.351 40.051 72.803 44.759 5.968.954 11.936 1.425 17.863 1.425 23.328 0 46.004-7.305 65.262-21.255 14.92-10.807 32.604-16.519 51.138-16.519 18.533 0 36.216 5.713 51.138 16.521 19.178 13.891 41.797 21.234 65.41 21.235h.01c35.734-.001 69.57-17.259 90.508-46.168 36.114-49.863 24.929-119.813-24.933-155.929z"/><path d="m266.783 385.918h18.583c2.762 0 5-2.239 5-5s-2.238-5-5-5h-18.583c-2.762 0-5 2.239-5 5s2.239 5 5 5z"/><path d="m325.366 394.3h-58.583c-2.762 0-5 2.239-5 5s2.238 5 5 5h58.583c2.762 0 5-2.239 5-5s-2.238-5-5-5z"/><path d="m325.366 412.681h-58.583c-2.762 0-5 2.239-5 5s2.238 5 5 5h58.583c2.762 0 5-2.239 5-5s-2.238-5-5-5z"/></g></g><g fill="#6583fe"><path d="m365.596 444.015c-2.762 0-5-2.239-5-5 0-3.492-2.841-6.333-6.333-6.333-2.762 0-5-2.239-5-5s2.238-5 5-5c3.492 0 6.333-2.841 6.333-6.333 0-2.761 2.238-5 5-5s5 2.239 5 5c0 3.492 2.841 6.333 6.333 6.333 2.762 0 5 2.239 5 5s-2.238 5-5 5c-3.492 0-6.333 2.841-6.333 6.333 0 2.761-2.239 5-5 5z"/><path d="m239.586 83.306c-2.762 0-5-2.239-5-5 0-3.492-2.841-6.333-6.333-6.333-2.762 0-5-2.239-5-5s2.238-5 5-5c3.492 0 6.333-2.841 6.333-6.333 0-2.761 2.238-5 5-5s5 2.239 5 5c0 3.492 2.842 6.333 6.334 6.333 2.762 0 5 2.239 5 5s-2.238 5-5 5c-3.492 0-6.334 2.841-6.334 6.333 0 2.761-2.238 5-5 5z"/><path d="m227.365 408.585c-2.762 0-5-2.239-5-5 0-3.492-2.841-6.333-6.333-6.333-2.762 0-5-2.239-5-5s2.238-5 5-5c3.492 0 6.333-2.841 6.333-6.334 0-2.761 2.238-5 5-5s5 2.239 5 5c0 3.492 2.841 6.334 6.333 6.334 2.762 0 5 2.239 5 5s-2.238 5-5 5c-3.492 0-6.333 2.841-6.333 6.333 0 2.761-2.238 5-5 5z"/><g><g><path d="m199.67 84.483c-2.762 0-5-2.239-5-5v-.15c0-2.761 2.238-5 5-5s5 2.239 5 5v.15c0 2.762-2.238 5-5 5z"/><path d="m199.67 112.268c-2.762 0-5-2.239-5-5v-.15c0-2.761 2.238-5 5-5s5 2.239 5 5v.15c0 2.761-2.238 5-5 5z"/></g><g><path d="m187.699 91.393c-.851 0-1.712-.217-2.5-.674l-.13-.075c-2.39-1.384-3.206-4.442-1.822-6.832s4.445-3.205 6.832-1.822l.13.075c2.39 1.384 3.206 4.442 1.822 6.833-.926 1.6-2.606 2.495-4.332 2.495z"/><path d="m211.761 105.285c-.851 0-1.712-.217-2.5-.674l-.13-.075c-2.39-1.384-3.206-4.442-1.822-6.832 1.383-2.39 4.444-3.205 6.832-1.822l.13.075c2.39 1.384 3.206 4.442 1.822 6.833-.927 1.6-2.607 2.495-4.332 2.495z"/></g><g><path d="m187.579 105.285c-1.727 0-3.405-.895-4.332-2.496-1.384-2.39-.567-5.449 1.822-6.833l.13-.075c2.39-1.384 5.449-.567 6.832 1.822 1.384 2.39.567 5.449-1.822 6.832l-.13.075c-.788.458-1.65.675-2.5.675z"/><path d="m211.641 91.393c-1.727 0-3.405-.895-4.332-2.496-1.384-2.39-.567-5.449 1.822-6.833l.13-.075c2.391-1.384 5.449-.567 6.832 1.822 1.384 2.39.567 5.449-1.822 6.832l-.13.075c-.788.458-1.651.675-2.5.675z"/></g></g><g><g><path d="m148.286 61.699c-2.762 0-5-2.239-5-5v-.15c0-2.761 2.238-5 5-5s5 2.239 5 5v.15c0 2.761-2.238 5-5 5z"/><path d="m148.286 89.483c-2.762 0-5-2.239-5-5v-.15c0-2.761 2.238-5 5-5s5 2.239 5 5v.15c0 2.762-2.238 5-5 5z"/></g><g><path d="m136.315 68.609c-.851 0-1.712-.217-2.5-.674l-.13-.075c-2.39-1.384-3.206-4.442-1.822-6.833 1.384-2.389 4.444-3.204 6.832-1.822l.13.075c2.39 1.384 3.206 4.442 1.822 6.832-.926 1.602-2.606 2.497-4.332 2.497z"/><path d="m160.377 82.501c-.851 0-1.712-.217-2.5-.674l-.13-.075c-2.39-1.384-3.206-4.442-1.822-6.833 1.384-2.39 4.445-3.205 6.832-1.822l.13.075c2.39 1.384 3.206 4.442 1.822 6.833-.927 1.601-2.606 2.496-4.332 2.496z"/></g><g><path d="m136.195 82.501c-1.727 0-3.405-.895-4.332-2.496-1.384-2.39-.567-5.449 1.822-6.833l.13-.075c2.39-1.384 5.449-.567 6.832 1.822 1.384 2.39.567 5.449-1.822 6.833l-.13.075c-.788.457-1.65.674-2.5.674z"/><path d="m160.257 68.609c-1.727 0-3.405-.895-4.332-2.496-1.384-2.39-.567-5.449 1.822-6.832l.13-.075c2.39-1.384 5.449-.567 6.832 1.822 1.384 2.39.567 5.449-1.822 6.833l-.13.075c-.788.456-1.651.673-2.5.673z"/></g></g></g></g></g></svg>