<svg id="Capa_1" enable-background="new 0 0 512 512" height="512" viewBox="0 0 512 512" width="512" xmlns="http://www.w3.org/2000/svg" xmlns:xlink="http://www.w3.org/1999/xlink"><linearGradient id="SVGID_1_" gradientTransform="matrix(1 0 0 -1 0 513.276)" gradientUnits="userSpaceOnUse" x1="96.523" x2="444.685" y1="69.226" y2="484.149"><stop offset="0" stop-color="#d2deff" stop-opacity="0"/><stop offset="1" stop-color="#b7c5ff"/></linearGradient><g><path d="m4.9 314.6c17.4 172.9 292.4 167.1 420.8 136.3 82.5-19.8 87.6-59.5 86.1-144-.6-35.6 1-109.6-7.6-169.2-4.6-31.6-12.1-59.2-24.4-74.9-54.4-69.7-103.2-26-170.7-3.2-86.4 29.1-120.1-23-202.4-21.5-120.7 2.3-110.8 187.3-101.8 276.5z" fill="url(#SVGID_1_)"/><g><g><g fill="#2626bc" opacity=".1"><path d="m406.4 209.6 64.7-64.7c4.2-4.2 4.2-11.1 0-15.3s-11.1-4.2-15.3 0l-64.8 64.6-36.5 31.2c-6.3-1.4-13 .3-17.9 4.8l-221.3 202.9c-13 12-13.5 32.4-1 44.9 12.1 12.1 31.8 12.1 44 0l134.5-134.5c1.5 37 32 66.6 69.4 66.6 38.4 0 69.5-31.1 69.5-69.5 0-37.4-29.6-67.9-66.6-69.4l20.5-20.5c2.8-2.8 3.5-6.6 2.5-9.9z"/><path d="m157.5 320.5c6.3 1.4 13-.3 17.9-4.8l221.3-202.8c13-12 13.5-32.4 1-44.9-12.1-12.1-31.8-12.1-44 0l-227.3 227.3c-2.8 2.8-3.5 6.6-2.5 9.9l-18.2 31.1-64.7 64.7c-4.2 4.2-4.2 11.1 0 15.3s11.1 4.2 15.3 0l64.7-64.7z"/><path d="m308.6 416.3h-18.6c-2.8 0-5 2.2-5 5s2.2 5 5 5h18.6c2.8 0 5-2.2 5-5s-2.2-5-5-5z"/><path d="m308.6 434.7h-58.6c-2.8 0-5 2.2-5 5s2.2 5 5 5h58.6c2.8 0 5-2.2 5-5s-2.2-5-5-5z"/><path d="m308.6 453h-58.6c-2.8 0-5 2.2-5 5s2.2 5 5 5h58.6c2.8 0 5-2.2 5-5s-2.2-5-5-5z"/></g><g><g><g fill="#fff"><path d="m406.4 184.6 64.7-64.7c4.2-4.2 4.2-11.1 0-15.3-4.2-4.2-11.1-4.2-15.3 0l-64.8 64.6z"/><path d="m339.8 213 51.2-43.8 15.4 15.4-18.3 31.1z"/><path d="m114.4 453c12.1 12.1 31.8 12.1 44 0l227.3-227.3c5.3-5.3 3.1-14.3-4-16.6l-25.3-8.1c-6.8-2.2-14.3-.5-19.6 4.3l-221.5 202.8c-13 11.9-13.4 32.4-.9 44.9z"/></g><path d="m309.6 230-67.7 62.1 38.7 38.6 64.9-64.9z" fill="#6583fe"/><path d="m269.3 267-11.2 10.2 38 38 10.7-10.7z" fill="#fff"/><g><path d="m231.8 347.9-41.4 41.4c-2 2-5.1 2-7.1 0s-2-5.1 0-7.1l41.4-41.4c2-2 5.1-2 7.1 0 1.9 2 1.9 5.2 0 7.1z" fill="#00c"/></g><circle cx="140.8" cy="431.9" fill="#00c" r="6.7"/></g><g><g fill="#fff"><path d="m105.6 311.4-64.7 64.7c-4.2 4.2-4.2 11.1 0 15.3 4.2 4.2 11.1 4.2 15.3 0l64.7-64.7z"/><path d="m172.2 282.9-51.2 43.8-15.4-15.3 18.3-31.2z"/><path d="m397.6 43c-12.1-12.1-31.8-12.1-44 0l-227.2 227.3c-5.3 5.3-3.1 14.3 4 16.6l25.3 8.1c6.8 2.2 14.3.5 19.6-4.3l221.4-202.8c13-12 13.4-32.4.9-44.9z"/></g><path d="m202.4 265.9 67.7-62-38.7-38.7-64.9 64.9z" fill="#6583fe"/><path d="m242.7 229 11.2-10.3-38-38-10.7 10.8z" fill="#fff"/><g><path d="m280.2 148 41.4-41.4c2-2 5.1-2 7.1 0s2 5.1 0 7.1l-41.4 41.4c-2 2-5.1 2-7.1 0s-1.9-5.1 0-7.1z" fill="#00c"/></g><circle cx="371.2" cy="64.1" fill="#00c" r="6.7"/></g></g><g><g><circle cx="362.2" cy="315.6" fill="#6583fe" r="69.5"/><path d="m394.6 301h-17.7v-17.7c0-5.5-4.5-10-10-10h-9.3c-5.5 0-10 4.5-10 10v17.7h-17.7c-5.5 0-10 4.5-10 10v9.3c0 5.5 4.5 10 10 10h17.7v17.7c0 5.5 4.5 10 10 10h9.3c5.5 0 10-4.5 10-10v-17.7h17.7c5.5 0 10-4.5 10-10v-9.3c0-5.6-4.5-10-10-10z" fill="#fff"/></g><g fill="#00c"><path d="m474.6 123.4c3-3 4.6-7 4.6-11.2s-1.6-8.2-4.6-11.2-7-4.6-11.2-4.6-8.2 1.6-11.2 4.6l-64.6 64.6-34.6 29.6c-7.1-.8-14.4 1.5-19.8 6.4l-221.2 202.8c-7.3 6.7-11.5 15.9-11.7 25.8s3.5 19.3 10.6 26.3c6.8 6.8 15.9 10.6 25.5 10.6s18.7-3.8 25.5-10.6l112.1-112.1c2-2 2-5.1 0-7.1s-5.1-2-7.1 0l-112.1 112.1c-4.9 4.9-11.5 7.6-18.4 7.6-7 0-13.5-2.7-18.4-7.6-5.1-5.1-7.8-11.8-7.6-19s3.2-13.8 8.5-18.7l221.1-202.8c4-3.6 9.6-4.9 14.7-3.2l25.3 8.1c2.4.8 3.1 2.8 3.3 3.6s.5 2.9-1.3 4.7l-19 19c-.3 0-.6 0-.8 0-41.1 0-74.5 33.4-74.5 74.5 0 17.1 5.9 33.8 16.7 47 10.6 13 25.4 22.2 41.8 25.8 2.7.6 5.4-1.1 6-3.8s-1.1-5.4-3.8-6c-29.3-6.4-50.6-32.9-50.6-63 0-35.6 28.9-64.5 64.5-64.5s64.5 28.9 64.5 64.5c0 30.4-21.6 57-51.4 63.2-2.7.6-4.4 3.2-3.9 5.9.5 2.4 2.6 4 4.9 4 .3 0 .7 0 1-.1 34.4-7.1 59.3-37.8 59.3-72.9 0-36.4-26.2-66.7-60.8-73.2l13.2-13.2c3.4-3.4 4.9-8 4.3-12.6l16.9-28.9zm-15.3-15.3c2.3-2.3 6-2.3 8.3 0s2.3 6 0 8.3l-61.2 61.2-8.3-8.3zm-71.6 98.5c-1.3-1-2.9-1.8-4.5-2.3l-18.5-5.9 26.1-22.3 9.3 9.3z"/><path d="m401.2 39.4c-6.8-6.8-15.9-10.6-25.5-10.6s-18.7 3.8-25.5 10.6l-227.4 227.4c-3.4 3.4-4.9 8-4.3 12.6l-16.9 28.9-64.2 64.2c-3 3-4.6 7-4.6 11.2s1.6 8.2 4.6 11.2 7 4.6 11.2 4.6 8.2-1.6 11.2-4.6l64.6-64.6 34.6-29.6c.9.1 1.9.2 2.8.2 6.2 0 12.2-2.3 16.9-6.6l221.3-202.7c7.3-6.7 11.5-15.9 11.7-25.8.2-10-3.5-19.3-10.5-26.4m-271.3 234.4 227.3-227.3c4.9-4.9 11.5-7.6 18.4-7.6 7 0 13.5 2.7 18.4 7.6 5.1 5.1 7.8 11.8 7.6 19s-3.2 13.8-8.5 18.7l-221.1 202.8c-4 3.6-9.6 4.9-14.7 3.2l-25.3-8.1c-2.4-.8-3.1-2.8-3.3-3.6-.3-.8-.6-2.9 1.2-4.7zm-5.6 15.5c1.3 1 2.9 1.8 4.5 2.3l18.5 5.9-26.1 22.3-9.3-9.3zm-71.6 98.6c-2.3 2.3-6 2.3-8.3 0s-2.3-6 0-8.3l61.2-61.2 8.3 8.3z"/><path d="m308.6 391.3h-18.6c-2.8 0-5 2.2-5 5s2.2 5 5 5h18.6c2.8 0 5-2.2 5-5s-2.2-5-5-5z"/><path d="m308.6 409.7h-58.6c-2.8 0-5 2.2-5 5s2.2 5 5 5h58.6c2.8 0 5-2.2 5-5s-2.2-5-5-5z"/><path d="m308.6 428h-58.6c-2.8 0-5 2.2-5 5s2.2 5 5 5h58.6c2.8 0 5-2.2 5-5s-2.2-5-5-5z"/></g></g></g><g fill="#6583fe"><path d="m209.5 109.3c-2.8 0-5-2.2-5-5 0-3.5-2.8-6.3-6.3-6.3-2.8 0-5-2.2-5-5s2.2-5 5-5c3.5 0 6.3-2.8 6.3-6.3 0-2.8 2.2-5 5-5s5 2.2 5 5c0 3.5 2.8 6.3 6.3 6.3 2.8 0 5 2.2 5 5s-2.2 5-5 5c-3.5 0-6.3 2.8-6.3 6.3 0 2.8-2.2 5-5 5z"/><path d="m256.9 85.4c-2.8 0-5-2.2-5-5 0-3.5-2.8-6.3-6.3-6.3-2.8 0-5-2.2-5-5s2.2-5 5-5c3.5 0 6.3-2.8 6.3-6.3 0-2.8 2.2-5 5-5s5 2.2 5 5c0 3.5 2.8 6.3 6.3 6.3 2.8 0 5 2.2 5 5s-2.2 5-5 5c-3.5 0-6.3 2.8-6.3 6.3 0 2.8-2.2 5-5 5z"/><g><g><path d="m196.8 130.3c-2.8 0-5-2.2-5-5v-.2c0-2.8 2.2-5 5-5s5 2.2 5 5v.2c0 2.8-2.2 5-5 5z"/><path d="m196.8 158.1c-2.8 0-5-2.2-5-5v-.1c0-2.8 2.2-5 5-5s5 2.2 5 5v.1c0 2.7-2.2 5-5 5z"/></g><g><path d="m184.8 137.2c-.8 0-1.7-.2-2.5-.7l-.1-.1c-2.4-1.4-3.2-4.4-1.8-6.8s4.4-3.2 6.8-1.8l.1.1c2.4 1.4 3.2 4.4 1.8 6.8-.8 1.6-2.5 2.5-4.3 2.5z"/><path d="m208.9 151.1c-.8 0-1.7-.2-2.5-.7l-.1-.1c-2.4-1.4-3.2-4.4-1.8-6.8s4.4-3.2 6.8-1.8l.1.1c2.4 1.4 3.2 4.4 1.8 6.8-.9 1.6-2.6 2.5-4.3 2.5z"/></g><g><path d="m184.7 151.1c-1.7 0-3.4-.9-4.3-2.5-1.4-2.4-.6-5.4 1.8-6.8l.1-.1c2.4-1.4 5.4-.6 6.8 1.8s.6 5.4-1.8 6.8l-.1.1c-.8.5-1.6.7-2.5.7z"/><path d="m208.8 137.2c-1.7 0-3.4-.9-4.3-2.5-1.4-2.4-.5-5.5 1.9-6.8l.1-.1c2.4-1.4 5.5-.5 6.8 1.9 1.4 2.4.5 5.5-1.9 6.8l-.1.1c-.8.4-1.7.6-2.5.6z"/></g></g><g><g><path d="m453.4 241.2c-2.8 0-5-2.2-5-5v-.2c0-2.8 2.2-5 5-5s5 2.2 5 5v.1c0 2.8-2.2 5.1-5 5.1z"/><path d="m453.4 268.9c-2.8 0-5-2.2-5-5v-.1c0-2.8 2.2-5 5-5s5 2.2 5 5v.1c0 2.8-2.2 5-5 5z"/></g><g><path d="m441.4 248.1c-.8 0-1.7-.2-2.5-.7l-.1-.1c-2.4-1.4-3.2-4.4-1.8-6.8s4.4-3.2 6.8-1.8l.1.1c2.4 1.4 3.2 4.4 1.8 6.8-.9 1.6-2.5 2.5-4.3 2.5z"/><path d="m465.5 262c-.8 0-1.7-.2-2.5-.7l-.1-.1c-2.4-1.4-3.2-4.4-1.8-6.8s4.4-3.2 6.8-1.8l.1.1c2.4 1.4 3.2 4.4 1.8 6.8-.9 1.6-2.6 2.5-4.3 2.5z"/></g><g><path d="m441.3 262c-1.7 0-3.4-.9-4.3-2.5-1.4-2.4-.6-5.5 1.8-6.8l.1-.1c2.4-1.4 5.5-.6 6.8 1.8 1.4 2.4.6 5.5-1.8 6.8l-.1.1c-.8.4-1.6.7-2.5.7z"/><path d="m465.4 248.1c-1.7 0-3.4-.9-4.3-2.5-1.4-2.4-.6-5.5 1.8-6.8l.1-.1c2.4-1.4 5.5-.6 6.8 1.8 1.4 2.4.6 5.5-1.8 6.8l-.1.1c-.8.5-1.7.7-2.5.7z"/></g></g><g><g><path d="m359.5 434.2c-2.8 0-5-2.2-5-5v-.1c0-2.8 2.2-5 5-5s5 2.2 5 5v.1c0 2.8-2.2 5-5 5z"/><path d="m359.5 462c-2.8 0-5-2.2-5-5v-.1c0-2.8 2.2-5 5-5s5 2.2 5 5v.1c0 2.8-2.2 5-5 5z"/></g><g><path d="m347.5 441.1c-.8 0-1.7-.2-2.5-.7l-.1-.1c-2.4-1.4-3.2-4.4-1.8-6.8s4.4-3.2 6.8-1.8l.1.1c2.4 1.4 3.2 4.4 1.8 6.8-.8 1.6-2.5 2.5-4.3 2.5z"/><path d="m371.6 455c-.8 0-1.7-.2-2.5-.7l-.1-.1c-2.4-1.4-3.2-4.4-1.8-6.8s4.4-3.2 6.8-1.8l.1.1c2.4 1.4 3.2 4.4 1.8 6.8-.9 1.6-2.6 2.5-4.3 2.5z"/></g><g><path d="m347.4 455c-1.7 0-3.4-.9-4.3-2.5-1.4-2.4-.6-5.5 1.8-6.8l.1-.1c2.4-1.4 5.5-.6 6.8 1.8 1.4 2.4.6 5.5-1.8 6.8l-.1.1c-.8.5-1.6.7-2.5.7z"/><path d="m371.5 441.1c-1.7 0-3.4-.9-4.3-2.5-1.4-2.4-.6-5.5 1.8-6.8l.1-.1c2.4-1.4 5.5-.6 6.8 1.8 1.4 2.4.6 5.5-1.8 6.8l-.1.1c-.8.5-1.7.7-2.5.7z"/></g></g></g></g></g></svg>