<svg id="Capa_1" enable-background="new 0 0 512 512" height="512" viewBox="0 0 512 512" width="512" xmlns="http://www.w3.org/2000/svg" xmlns:xlink="http://www.w3.org/1999/xlink"><linearGradient id="SVGID_1_" gradientUnits="userSpaceOnUse" x1="27.58" x2="504.532" y1="385.955" y2="110.586"><stop offset="0" stop-color="#d2deff" stop-opacity="0"/><stop offset="1" stop-color="#b7c5ff"/></linearGradient><g><path d="m4.896 320.784c17.448 172.871 292.417 167.142 420.803 136.265 82.47-19.834 87.596-59.472 86.106-144.001-.96-54.486 3.443-198.725-32.004-244.123-54.448-69.733-103.228-25.998-170.656-3.235-86.488 29.197-120.189-22.932-202.476-21.38-120.641 2.278-110.778 187.252-101.773 276.474z" fill="url(#SVGID_1_)"/><g><path d="m367.46 147.656h-3.089v-53.5c0-11.046-8.954-20-20-20h-137.383c-11.046 0-20 8.954-20 20v53.5h-3.088c-5.523 0-10 4.477-10 10v289.556c-3.786-4.643-9.548-7.612-16.006-7.612-8.677 0-16.09 5.358-19.146 12.941-3.055-7.583-10.469-12.941-19.146-12.941-11.403 0-20.648 9.244-20.648 20.648s9.244 20.648 20.648 20.648c8.677 0 16.091-5.358 19.146-12.941 3.056 7.583 10.469 12.941 19.146 12.941 6.592 0 12.448-3.1 16.229-7.909.962 4.519 4.972 7.909 9.777 7.909h183.56c5.523 0 10-4.477 10-10v-313.24c0-5.523-4.478-10-10-10z" fill="#2626bc" opacity=".1"/><g><g><path d="m364.371 194.438h-177.383v-125.283c0-11.046 8.954-20 20-20h137.383c11.046 0 20 8.954 20 20z" fill="#fff"/><g><path d="m275.68 170.516c-2.761 0-5-2.239-5-5v-90.955c0-2.761 2.239-5 5-5s5 2.239 5 5v90.955c0 2.761-2.239 5-5 5z" fill="#00c"/></g><path d="m377.46 132.656v313.24c0 5.523-4.477 10-10 10h-183.56c-5.523 0-10-4.477-10-10v-313.24c0-5.523 4.477-10 10-10h15.613c4.847 0 8.996 3.476 9.845 8.247l3.804 21.365c.85 4.772 4.999 8.247 9.845 8.247h105.346c4.847 0 8.996-3.476 9.845-8.247l3.804-21.365c.85-4.772 4.999-8.247 9.845-8.247h15.613c5.522 0 10 4.477 10 10z" fill="#fff"/><path d="m377.46 296.08v-163.424c0-5.523-4.477-10-10-10h-15.613c-4.847 0-8.996 3.476-9.845 8.247l-3.804 21.365c-.85 4.772-4.999 8.247-9.845 8.247h-105.346c-4.847 0-8.996-3.476-9.845-8.247l-3.804-21.365c-.849-4.772-4.998-8.247-9.845-8.247h-15.613c-5.523 0-10 4.477-10 10v80.646z" fill="#6583fe"/></g><g fill="#6583fe"><circle cx="316.438" cy="102.008" r="20.648"/><circle cx="237.226" cy="102.008" r="20.648"/></g><g><path d="m335.277 302.905h-23.156c-2.761 0-5-2.239-5-5v-104.876c0-2.761 2.239-5 5-5h23.156c2.761 0 5 2.239 5 5v104.876c0 2.762-2.239 5-5 5z" fill="#fff"/><path d="m340.277 217.874v-24.845c0-2.761-2.239-5-5-5h-23.156c-2.761 0-5 2.239-5 5v24.845z" fill="#6583fe"/><g><path d="m330.277 421.469v-95.978c0-2.611 1.909-4.943 4.508-5.191 2.982-.285 5.492 2.052 5.492 4.976v96.193c0 2.761-2.239 5-5 5-2.761 0-5-2.238-5-5z" fill="#00c"/></g></g><g><path d="m311.438 396.469v-70.978c0-2.611 1.909-4.943 4.508-5.191 2.982-.285 5.492 2.052 5.492 4.976v71.193c0 2.761-2.239 5-5 5-2.761 0-5-2.238-5-5z" fill="#00c"/></g><g><path d="m200.879 368.373v-20.978c0-2.611 1.909-4.943 4.508-5.191 2.982-.285 5.492 2.053 5.492 4.977v21.193c0 2.761-2.239 5-5 5-2.762-.001-5-2.24-5-5.001z" fill="#00c"/></g><g><path d="m200.879 325.469v-10.978c0-2.611 1.909-4.943 4.508-5.191 2.982-.285 5.492 2.053 5.492 4.977v11.193c0 2.761-2.239 5-5 5-2.762-.001-5-2.24-5-5.001z" fill="#00c"/></g><ellipse cx="157.894" cy="435.248" fill="#fff" rx="20.648" ry="20.648" transform="matrix(.924 -.383 .383 .924 -154.543 93.555)"/><g><ellipse cx="119.602" cy="435.248" fill="#fff" rx="20.648" ry="20.648" transform="matrix(.924 -.383 .383 .924 -157.458 78.901)"/><path d="m369.371 117.792v-48.637c0-13.785-11.215-25-25-25h-137.383c-13.785 0-25 11.215-25 25v24.399c0 2.761 2.239 5 5 5s5-2.239 5-5v-24.399c0-8.271 6.729-15 15-15h137.383c8.271 0 15 6.729 15 15v48.501h-7.524c-7.281 0-13.492 5.203-14.768 12.371l-3.803 21.366c-.426 2.389-2.496 4.124-4.923 4.124h-16.429c-2.761 0-5 2.239-5 5s2.239 5 5 5h16.429c7.281 0 13.492-5.203 14.768-12.371l3.803-21.366c.426-2.389 2.496-4.123 4.923-4.123h15.613c2.757 0 5 2.243 5 5v313.24c0 2.757-2.243 5-5 5h-183.56c-1.733 0-3.261-.888-4.158-2.231 2.408-3.906 3.8-8.501 3.8-13.417 0-5.461-1.721-10.525-4.642-14.689v-287.904c0-2.757 2.243-5 5-5h15.613c2.427 0 4.497 1.734 4.922 4.123l3.804 21.366c1.276 7.168 7.487 12.371 14.768 12.371h59.816c2.761 0 5-2.239 5-5s-2.239-5-5-5h-59.816c-2.427 0-4.497-1.734-4.923-4.124l-3.803-21.366c-1.276-7.168-7.487-12.371-14.768-12.371h-15.613c-8.271 0-15 6.729-15 15v279.43c-3.337-1.592-7.069-2.486-11.006-2.486-7.606 0-14.443 3.333-19.143 8.61-4.701-5.278-11.542-8.61-19.149-8.61-14.142 0-25.647 11.506-25.647 25.648s11.505 25.647 25.647 25.647c7.607 0 14.448-3.332 19.149-8.61 4.7 5.277 11.537 8.61 19.143 8.61 5.592 0 10.768-1.804 14.987-4.854 2.741 2.978 6.661 4.854 11.019 4.854h183.56c8.271 0 15-6.729 15-15v-313.24c-.001-7.62-5.719-13.919-13.089-14.862zm-249.769 333.104c-8.628 0-15.647-7.02-15.647-15.647 0-8.629 7.02-15.648 15.647-15.648 8.628 0 15.648 7.02 15.648 15.648-.001 8.627-7.02 15.647-15.648 15.647zm38.292 0c-5.93 0-11.1-3.316-13.753-8.19.719-2.361 1.109-4.864 1.109-7.457s-.39-5.096-1.109-7.457c2.654-4.875 7.824-8.191 13.753-8.191 8.628 0 15.648 7.02 15.648 15.648-.001 8.627-7.02 15.647-15.648 15.647z" fill="#00c"/></g><ellipse cx="223.685" cy="405.614" fill="#fff" rx="22.806" ry="22.806" transform="matrix(.234 -.972 .972 .234 -223.032 528.092)"/></g><g fill="#6583fe"><g><g><path d="m129.431 348.96c-2.761 0-5-2.239-5-5v-.15c0-2.761 2.239-5 5-5s5 2.239 5 5v.15c0 2.761-2.239 5-5 5z"/><path d="m129.431 376.744c-2.761 0-5-2.239-5-5v-.15c0-2.761 2.239-5 5-5s5 2.239 5 5v.15c0 2.761-2.239 5-5 5z"/></g><g><path d="m117.46 355.869c-.85 0-1.712-.217-2.501-.674l-.13-.075c-2.39-1.384-3.206-4.442-1.822-6.833 1.383-2.389 4.442-3.206 6.832-1.822l.13.075c2.39 1.384 3.206 4.442 1.822 6.832-.926 1.602-2.605 2.497-4.331 2.497z"/><path d="m141.522 369.761c-.843 0-1.697-.213-2.481-.663l-.13-.075c-2.396-1.373-3.225-4.428-1.853-6.824 1.373-2.396 4.429-3.227 6.824-1.853l.13.075c2.396 1.373 3.225 4.428 1.852 6.824-.923 1.612-2.608 2.516-4.342 2.516z"/></g><g><path d="m117.34 369.761c-1.731 0-3.414-.9-4.339-2.508-1.377-2.394-.553-5.451 1.841-6.827l.13-.075c2.395-1.378 5.451-.552 6.827 1.841 1.377 2.394.553 5.451-1.841 6.827l-.13.075c-.786.452-1.643.667-2.488.667z"/><path d="m141.401 355.869c-1.729 0-3.41-.898-4.336-2.503-1.38-2.392-.559-5.45 1.833-6.829l.13-.075c2.391-1.381 5.449-.559 6.829 1.833s.559 5.45-1.833 6.829l-.13.075c-.786.454-1.646.67-2.493.67z"/></g></g><g><g><path d="m94.668 302.027c-2.761 0-5-2.239-5-5v-.15c0-2.761 2.239-5 5-5s5 2.239 5 5v.15c0 2.762-2.238 5-5 5z"/><path d="m94.668 329.812c-2.761 0-5-2.239-5-5v-.15c0-2.761 2.239-5 5-5s5 2.239 5 5v.15c0 2.761-2.238 5-5 5z"/></g><g><path d="m82.698 308.937c-.848 0-1.706-.216-2.493-.67l-.13-.075c-2.392-1.379-3.213-4.437-1.833-6.829s4.436-3.214 6.829-1.833l.13.075c2.392 1.379 3.213 4.437 1.833 6.829-.926 1.605-2.607 2.503-4.336 2.503z"/><path d="m106.759 322.829c-.85 0-1.711-.217-2.5-.674l-.13-.075c-2.39-1.384-3.206-4.442-1.822-6.832 1.383-2.389 4.441-3.205 6.832-1.822l.13.075c2.39 1.384 3.206 4.442 1.822 6.832-.926 1.601-2.606 2.496-4.332 2.496z"/></g><g><path d="m82.577 322.829c-1.729 0-3.41-.898-4.336-2.503-1.38-2.392-.559-5.45 1.833-6.829l.13-.075c2.391-1.382 5.449-.559 6.829 1.833s.559 5.45-1.833 6.829l-.13.075c-.786.454-1.646.67-2.493.67z"/><path d="m106.639 308.937c-1.726 0-3.405-.895-4.332-2.496-1.384-2.39-.568-5.449 1.822-6.832l.13-.075c2.391-1.384 5.449-.567 6.832 1.822 1.384 2.39.568 5.449-1.822 6.833l-.13.075c-.788.456-1.65.673-2.5.673z"/></g></g><path d="m137.246 118.341c-2.761 0-5-2.239-5-5 0-3.492-2.841-6.333-6.333-6.333-2.761 0-5-2.239-5-5s2.239-5 5-5c3.492 0 6.333-2.841 6.333-6.333 0-2.761 2.239-5 5-5s5 2.239 5 5c0 3.492 2.841 6.333 6.333 6.333 2.761 0 5 2.239 5 5s-2.239 5-5 5c-3.492 0-6.333 2.841-6.333 6.333 0 2.762-2.239 5-5 5z"/><path d="m419.241 220.347c-2.761 0-5-2.239-5-5 0-3.492-2.841-6.333-6.333-6.333-2.761 0-5-2.239-5-5s2.239-5 5-5c3.492 0 6.333-2.841 6.333-6.333 0-2.761 2.239-5 5-5s5 2.239 5 5c0 3.492 2.841 6.333 6.333 6.333 2.761 0 5 2.239 5 5s-2.239 5-5 5c-3.492 0-6.333 2.841-6.333 6.333 0 2.761-2.239 5-5 5z"/><path d="m90.688 399.141c-2.761 0-5-2.239-5-5 0-3.492-2.841-6.333-6.334-6.333-2.761 0-5-2.239-5-5s2.239-5 5-5c3.492 0 6.334-2.841 6.334-6.333 0-2.761 2.239-5 5-5s5 2.239 5 5c0 3.492 2.841 6.333 6.333 6.333 2.761 0 5 2.239 5 5s-2.239 5-5 5c-3.492 0-6.333 2.841-6.333 6.333 0 2.761-2.238 5-5 5z"/></g></g><path d="m335.277 307.905h-23.156c-5.514 0-10-4.486-10-10v-104.876c0-5.514 4.486-10 10-10h23.156c5.514 0 10 4.486 10 10v104.876c0 5.514-4.486 10-10 10zm-23.156-114.876v104.876h23.162l-.006-104.876z" fill="#00c"/></g></svg>