<svg id="Capa_1" enable-background="new 0 0 512 512" height="512" viewBox="0 0 512 512" width="512" xmlns="http://www.w3.org/2000/svg" xmlns:xlink="http://www.w3.org/1999/xlink"><linearGradient id="SVGID_1_" gradientUnits="userSpaceOnUse" x1="8.753" x2="524.203" y1="401.161" y2="103.566"><stop offset="0" stop-color="#d2deff" stop-opacity="0"/><stop offset="1" stop-color="#b7c5ff"/></linearGradient><g><path d="m418.32 2.5c-55.666-9.521-178.298 12.183-200.004 105.016-14.432 61.722-14.007 112.075-50.427 113.02-21.67.562-32.97-44.31-62.889-48.001-39.047-4.817-66.145 27.695-83.057 57.138-37.205 64.772-25.571 174.918 23.354 228.632 118.488 130.086 259.197-5.952 319.358-112.309 38.585-68.213 125.637-123.352 143.767-200.248 15.177-64.375-18.503-131.002-90.102-143.248z" fill="url(#SVGID_1_)"/><g><g><g fill="#2626bc" opacity=".1"><path d="m244.466 177.989c0-6.903-5.597-12.5-12.5-12.5-6.904 0-12.5 5.597-12.5 12.5 0 22.451-18.266 40.717-40.717 40.717h-8.758c1.723-7.996 5.134-15.55 10.124-22.271 8.958-12.067 13.27-26.041 13.271-39.882.002-21.09-10.008-41.879-28.853-55.196-31.213-22.057-74.842-15.25-97.449 15.202-24.836 33.456-37.964 73.012-37.964 114.391 0 41.381 13.128 80.938 37.965 114.393 22.608 30.453 66.237 37.259 97.45 15.2 31.213-22.057 38.186-64.628 15.579-95.078-4.883-6.577-8.251-13.952-10.009-21.759h8.644c22.451 0 40.717 18.266 40.717 40.717v171.67c0 6.903 5.597 12.5 12.5 12.5 6.904 0 12.5-5.597 12.5-12.5v-171.67c0-21.869-10.747-41.264-27.227-53.217 16.48-11.953 27.227-31.348 27.227-53.217z"/><path d="m444.915 116.559c-22.607-30.453-66.237-37.259-97.449-15.202-18.845 13.317-28.855 34.106-28.853 55.196.001 13.841 4.314 27.815 13.271 39.882 4.99 6.722 8.4 14.275 10.124 22.271h-8.758c-22.451 0-40.717-18.266-40.717-40.717 0-6.903-5.596-12.5-12.5-12.5-6.903 0-12.5 5.597-12.5 12.5 0 21.869 10.747 41.264 27.227 53.217-16.48 11.952-27.227 31.348-27.227 53.217v171.67c0 6.903 5.596 12.5 12.5 12.5 6.903 0 12.5-5.597 12.5-12.5v-171.67c0-22.451 18.266-40.717 40.717-40.717h8.644c-1.758 7.807-5.126 15.182-10.009 21.759-22.607 30.45-15.634 73.021 15.579 95.078 31.212 22.058 74.841 15.253 97.449-15.2 24.837-33.455 37.965-73.012 37.965-114.393.001-41.379-13.127-80.935-37.963-114.391z"/></g><g><g><g><path d="m231.966 443.592c-6.903 0-12.5-5.597-12.5-12.5v-171.67c0-22.451-18.266-40.717-40.717-40.717h-37.504c-6.903 0-12.5-5.597-12.5-12.5s5.597-12.5 12.5-12.5h37.504c36.236 0 65.717 29.48 65.717 65.717v171.67c0 6.904-5.596 12.5-12.5 12.5z" fill="#fff"/></g><path d="m193.387 131.553c.002-21.09-10.008-41.879-28.853-55.196-31.213-22.057-74.842-15.251-97.449 15.202-24.836 33.456-37.964 73.012-37.964 114.391 0 41.381 13.128 80.938 37.965 114.393 22.608 30.453 66.237 37.258 97.45 15.2 31.214-22.057 38.186-64.628 15.579-95.078-7.477-10.072-11.43-22.008-11.43-34.515s3.952-24.442 11.431-34.515c8.958-12.067 13.27-26.041 13.271-39.882z" fill="#6583fe"/><g><path d="m178.749 218.706h-37.504c-6.904 0-12.5-5.597-12.5-12.5s5.596-12.5 12.5-12.5h37.504c22.451 0 40.717-18.266 40.717-40.717 0-6.903 5.596-12.5 12.5-12.5 6.903 0 12.5 5.597 12.5 12.5 0 36.236-29.48 65.717-65.717 65.717z" fill="#fff"/></g><path d="m153.976 240.465c-7.477-10.072-11.43-22.008-11.43-34.515s3.952-24.442 11.431-34.515h-53.888v69.031h53.887z" fill="#6583fe"/><g fill="#fff"><circle cx="140.116" cy="124.692" r="26.464"/><ellipse cx="113.651" cy="155.693" rx="18.713" ry="18.713" transform="matrix(.23 -.973 .973 .23 -63.989 230.533)"/></g></g><g><g><path d="m280.034 443.592c6.903 0 12.5-5.597 12.5-12.5v-171.67c0-22.451 18.266-40.717 40.717-40.717h37.504c6.903 0 12.5-5.597 12.5-12.5s-5.597-12.5-12.5-12.5h-37.504c-36.236 0-65.717 29.48-65.717 65.717v171.67c0 6.904 5.596 12.5 12.5 12.5z" fill="#fff"/></g><path d="m318.613 131.553c-.002-21.09 10.008-41.879 28.853-55.196 31.213-22.057 74.842-15.251 97.449 15.202 24.836 33.456 37.964 73.012 37.964 114.391 0 41.381-13.128 80.938-37.965 114.393-22.608 30.453-66.238 37.258-97.449 15.2-31.214-22.057-38.186-64.628-15.579-95.078 7.477-10.072 11.43-22.008 11.43-34.515s-3.952-24.442-11.431-34.515c-8.958-12.067-13.271-26.041-13.272-39.882z" fill="#6583fe"/><g><path d="m333.251 218.706h37.504c6.904 0 12.5-5.597 12.5-12.5s-5.596-12.5-12.5-12.5h-37.504c-22.451 0-40.717-18.266-40.717-40.717 0-6.903-5.596-12.5-12.5-12.5-6.903 0-12.5 5.597-12.5 12.5 0 36.236 29.48 65.717 65.717 65.717z" fill="#fff"/></g><path d="m358.024 240.465c7.477-10.072 11.43-22.008 11.43-34.515s-3.952-24.442-11.431-34.515h53.888v69.031h-53.887z" fill="#6583fe"/><g fill="#00c"><path d="m249.466 152.989c0-9.649-7.851-17.5-17.5-17.5s-17.5 7.851-17.5 17.5c0 19.694-16.022 35.717-35.717 35.717h-2.162c1.75-5.066 4.266-9.877 7.543-14.291 9.326-12.562 14.256-27.384 14.257-42.862.002-23.415-11.575-45.576-30.967-59.279-33.362-23.578-80.174-16.262-104.35 16.304-25.481 34.325-38.949 74.911-38.949 117.371 0 42.464 13.469 83.051 38.95 117.374 14.606 19.674 37.467 30.13 60.639 30.13 15.184 0 30.504-4.493 43.711-13.827 16.286-11.509 26.963-28.536 30.065-47.944 3.071-19.211-1.673-38.459-13.357-54.197-3.167-4.266-5.639-8.898-7.382-13.778h2.002c19.694 0 35.717 16.022 35.717 35.717v171.67c0 9.649 7.851 17.5 17.5 17.5s17.5-7.851 17.5-17.5v-77.689c0-2.762-2.239-5-5-5s-5 2.238-5 5v77.689c0 4.136-3.364 7.5-7.5 7.5s-7.5-3.364-7.5-7.5v-171.67c0-16.868-9.189-31.62-22.818-39.543 5.47-1.878 10.636-4.406 15.41-7.496 14.254 11.613 22.408 28.635 22.408 47.039v64.88c0 2.762 2.239 5 5 5s5-2.238 5-5v-64.88c0-20.624-8.768-39.769-24.208-53.23 14.821-12.973 24.208-32.008 24.208-53.205zm-73.366 90.456c10.066 13.558 14.154 30.128 11.512 46.658-2.673 16.728-11.894 31.414-25.962 41.356-28.962 20.468-69.584 14.144-90.549-14.098-24.192-32.587-36.979-71.112-36.979-111.413 0-40.297 12.787-78.822 36.979-111.41 12.658-17.052 32.479-26.113 52.576-26.113 13.189 0 26.497 3.904 37.974 12.014 16.745 11.833 26.74 30.94 26.738 51.113-.001 13.316-4.25 26.076-12.286 36.901-4.593 6.187-7.949 13.024-10.008 20.252h-15.659c1.752-5.067 4.28-9.876 7.558-14.291 1.646-2.218 1.183-5.35-1.034-6.995-2.217-1.646-5.349-1.183-6.995 1.034-8.123 10.941-12.416 23.907-12.416 37.495 0 13.589 4.293 26.555 12.415 37.496.981 1.321 2.49 2.02 4.019 2.02 1.036 0 2.081-.32 2.977-.985 2.217-1.646 2.68-4.777 1.034-6.995-3.166-4.266-5.631-8.9-7.376-13.778h15.644c2.067 7.037 5.355 13.701 9.838 19.739zm-27.98-29.739c-.375-2.55-.574-5.138-.574-7.757 0-2.443.175-4.859.502-7.243h30.701c25.209 0 45.717-20.509 45.717-45.717 0-4.136 3.364-7.5 7.5-7.5s7.5 3.364 7.5 7.5c0 33.48-27.237 60.717-60.717 60.717z"/><path d="m448.93 88.578c-24.176-32.565-70.987-39.882-104.349-16.305-19.393 13.703-30.97 35.864-30.968 59.279.001 13.064 3.598 25.903 10.402 37.13 1.431 2.362 4.506 3.115 6.868 1.684 2.361-1.431 3.115-4.506 1.684-6.867-5.857-9.663-8.953-20.71-8.954-31.946-.002-20.173 9.994-39.28 26.738-51.113 28.964-20.467 69.584-14.143 90.549 14.1 24.191 32.588 36.978 71.113 36.978 111.41 0 40.301-12.787 78.826-36.979 111.413-20.966 28.24-61.587 34.566-90.549 14.098-14.069-9.942-23.289-24.629-25.962-41.356-2.642-16.53 1.446-33.101 11.512-46.658 4.475-6.027 7.778-12.66 9.86-19.739h15.625c-1.744 4.879-4.209 9.513-7.376 13.778-1.646 2.218-1.183 5.35 1.034 6.995.896.665 1.94.985 2.977.985 1.528 0 3.038-.698 4.019-2.02 8.122-10.941 12.415-23.907 12.415-37.496 0-13.588-4.293-26.554-12.416-37.495-1.646-2.217-4.777-2.681-6.995-1.034-2.217 1.645-2.68 4.777-1.034 6.995 3.278 4.415 5.805 9.224 7.558 14.291h-28.315c-19.694 0-35.717-16.022-35.717-35.717 0-9.649-7.851-17.5-17.5-17.5s-17.5 7.851-17.5 17.5c0 21.197 9.387 40.231 24.208 53.203-15.44 13.46-24.208 32.606-24.208 53.23v171.67c0 9.649 7.851 17.5 17.5 17.5s17.5-7.851 17.5-17.5v-171.67c0-19.694 16.022-35.717 35.717-35.717h2.007c-1.748 4.895-4.221 9.513-7.387 13.778-11.684 15.738-16.428 34.986-13.357 54.197 3.102 19.408 13.779 36.436 30.065 47.944 13.209 9.335 28.525 13.827 43.711 13.827 23.169-.001 46.034-10.458 60.639-30.13 25.482-34.323 38.95-74.91 38.95-117.374-.001-42.459-13.469-83.045-38.95-117.37zm-176.396 64.411c0-4.136 3.364-7.5 7.5-7.5s7.5 3.364 7.5 7.5c0 25.208 20.508 45.717 45.717 45.717h30.701c.326 2.384.502 4.8.502 7.243 0 2.618-.199 5.207-.573 7.757h-30.63c-33.48 0-60.717-27.237-60.717-60.717zm15 106.434v171.67c0 4.136-3.364 7.5-7.5 7.5s-7.5-3.364-7.5-7.5v-171.67c0-18.405 8.153-35.428 22.408-47.039 4.775 3.09 9.941 5.618 15.41 7.496-13.629 7.923-22.818 22.675-22.818 39.543z"/></g><g fill="#fff"><circle cx="371.884" cy="124.692" r="26.464"/><ellipse cx="398.349" cy="155.693" rx="18.713" ry="18.713" transform="matrix(.973 -.23 .23 .973 -25.115 95.687)"/></g></g></g></g><g fill="#6583fe"><path d="m138.262 418.71c-2.761 0-5-2.238-5-5 0-3.492-2.841-6.333-6.333-6.333-2.761 0-5-2.238-5-5s2.239-5 5-5c3.492 0 6.333-2.842 6.333-6.334 0-2.762 2.239-5 5-5s5 2.238 5 5c0 3.492 2.841 6.334 6.333 6.334 2.761 0 5 2.238 5 5s-2.239 5-5 5c-3.492 0-6.333 2.841-6.333 6.333 0 2.762-2.239 5-5 5z"/><path d="m398.349 407.919c-2.761 0-5-2.238-5-5 0-3.492-2.841-6.334-6.333-6.334-2.761 0-5-2.238-5-5s2.239-5 5-5c3.492 0 6.333-2.841 6.333-6.333 0-2.762 2.239-5 5-5s5 2.238 5 5c0 3.492 2.841 6.333 6.334 6.333 2.761 0 5 2.238 5 5s-2.239 5-5 5c-3.492 0-6.334 2.842-6.334 6.334 0 2.762-2.239 5-5 5z"/><path d="m256 111.95c-2.761 0-5-2.238-5-5 0-3.492-2.841-6.334-6.333-6.334-2.761 0-5-2.238-5-5s2.239-5 5-5c3.492 0 6.333-2.841 6.333-6.333 0-2.762 2.239-5 5-5s5 2.238 5 5c0 3.492 2.841 6.333 6.333 6.333 2.761 0 5 2.238 5 5s-2.239 5-5 5c-3.492 0-6.333 2.842-6.333 6.334 0 2.762-2.239 5-5 5z"/><g><g><path d="m178.14 364.013c-2.761 0-5-2.238-5-5v-.15c0-2.762 2.239-5 5-5s5 2.238 5 5v.15c0 2.761-2.239 5-5 5z"/><path d="m178.14 391.797c-2.761 0-5-2.238-5-5v-.15c0-2.762 2.239-5 5-5s5 2.238 5 5v.15c0 2.762-2.239 5-5 5z"/></g><g><path d="m166.169 370.922c-.85 0-1.711-.217-2.5-.674l-.13-.075c-2.39-1.384-3.206-4.442-1.822-6.832 1.383-2.39 4.442-3.207 6.833-1.822l.13.075c2.39 1.384 3.206 4.442 1.822 6.832-.928 1.601-2.607 2.496-4.333 2.496z"/><path d="m190.231 384.815c-.848 0-1.706-.216-2.493-.67l-.13-.075c-2.392-1.38-3.213-4.438-1.833-6.829 1.379-2.392 4.437-3.213 6.829-1.833l.13.075c2.392 1.38 3.213 4.438 1.833 6.829-.926 1.605-2.607 2.503-4.336 2.503z"/></g><g><path d="m166.049 384.815c-1.726 0-3.405-.895-4.332-2.496-1.384-2.39-.568-5.448 1.822-6.832l.13-.075c2.391-1.385 5.449-.568 6.833 1.822s.568 5.448-1.822 6.832l-.13.075c-.79.457-1.651.674-2.501.674z"/><path d="m190.11 370.922c-1.729 0-3.41-.897-4.336-2.503-1.38-2.392-.559-5.449 1.833-6.829l.13-.075c2.392-1.383 5.45-.56 6.829 1.833 1.38 2.392.559 5.449-1.833 6.829l-.13.075c-.786.454-1.645.67-2.493.67z"/></g></g><g><g><path d="m297.791 61.649c-2.761 0-5-2.238-5-5v-.15c0-2.762 2.239-5 5-5s5 2.238 5 5v.15c0 2.762-2.239 5-5 5z"/><path d="m297.791 89.434c-2.761 0-5-2.238-5-5v-.15c0-2.762 2.239-5 5-5s5 2.238 5 5v.15c0 2.761-2.239 5-5 5z"/></g><g><path d="m285.82 68.559c-.85 0-1.711-.217-2.5-.674l-.13-.075c-2.39-1.384-3.206-4.442-1.822-6.832 1.384-2.391 4.441-3.208 6.832-1.822l.13.075c2.39 1.384 3.205 4.442 1.822 6.832-.926 1.601-2.606 2.496-4.332 2.496z"/><path d="m309.883 82.45c-.839 0-1.689-.211-2.469-.655l-.13-.074c-2.4-1.366-3.238-4.42-1.872-6.819 1.367-2.4 4.421-3.236 6.819-1.872l.13.074c2.4 1.366 3.238 4.42 1.872 6.819-.922 1.619-2.612 2.527-4.35 2.527z"/></g><g><path d="m285.7 82.45c-1.736 0-3.423-.905-4.346-2.521-1.37-2.397-.537-5.451 1.861-6.821l.13-.074c2.397-1.37 5.452-.538 6.822 1.86 1.37 2.397.537 5.451-1.861 6.821l-.13.074c-.782.448-1.635.661-2.476.661z"/><path d="m309.762 68.559c-1.729 0-3.41-.897-4.336-2.503-1.38-2.392-.559-5.449 1.833-6.829l.13-.075c2.392-1.382 5.45-.56 6.829 1.833 1.38 2.392.559 5.449-1.833 6.829l-.13.075c-.787.454-1.646.67-2.493.67z"/></g></g></g></g></g></svg>