<svg id="Capa_1" enable-background="new 0 0 512 512" height="512" viewBox="0 0 512 512" width="512" xmlns="http://www.w3.org/2000/svg" xmlns:xlink="http://www.w3.org/1999/xlink"><linearGradient id="SVGID_1_" gradientUnits="userSpaceOnUse" x1="0" x2="512" y1="256" y2="256"><stop offset="0" stop-color="#d2deff" stop-opacity="0"/><stop offset="1" stop-color="#b7c5ff"/></linearGradient><g><path d="m20.337 133.512c-23.967 39.398-26.493 107.613-8.937 150.256 15.377 37.351 45.966 72.409 86.12 76.801 14.766 1.615 29.858-1.024 44.472 1.638 50.258 9.152 68.952 71.09 108.01 104.014 27.183 22.913 64.898 31.022 100.174 26.607 35.276-4.414 68.302-20.363 97.376-40.824 22.957-16.157 44.436-36.022 55.764-61.707 23.744-53.839-4.19-118.501-47.587-158.239-13.516-12.377-28.581-23.294-39.875-37.727-11.293-14.434-18.48-33.695-13.099-51.214 4.293-13.977 15.849-24.812 20.227-38.763 5.958-18.984-3.035-40.281-17.802-53.616s-34.308-20.039-53.666-24.64c-81.103-19.281-258.823-11.524-331.177 107.414z" fill="url(#SVGID_1_)"/><g><g fill="#2626bc" opacity=".1"><path d="m331.042 338.843c0-15.55-12.606-28.156-28.156-28.156-1.23 0-2.439.087-3.627.24.939-3.068 1.447-6.324 1.447-9.699 0-18.286-14.824-33.11-33.11-33.11h-72.513l17.084-17.084c12.93-12.93 12.93-33.894 0-46.825-12.93-12.93-33.894-12.93-46.824 0l-57.603 57.603c-12.93 12.93-12.93 33.894 0 46.824 12.743 12.743 33.283 12.918 46.252.544 3.562 14.443 16.598 25.156 32.142 25.156h24.902c-13.106 9.28-23.538 22.084-29.921 37.031-5.863-4.503-13.197-7.186-21.161-7.186-9.04 0-17.274 3.451-23.459 9.105.029-.513.047-1.029.047-1.549 0-15.035-12.188-27.224-27.224-27.224-15.035 0-27.224 12.188-27.224 27.224 0 15.035 12.188 27.224 27.224 27.224 6.102 0 11.735-2.008 16.275-5.399-.274 1.76-.419 3.562-.419 5.399 0 19.209 15.572 34.78 34.78 34.78 6.332 0 12.263-1.701 17.377-4.657 10.251 36.807 44.013 63.815 84.088 63.815 48.205 0 87.284-39.078 87.284-87.284 0-21.117-7.5-40.482-19.98-55.578 1.489-3.429 2.319-7.214 2.319-11.194z"/><ellipse cx="125.8" cy="162.822" rx="27.224" ry="27.224" transform="matrix(.851 -.526 .526 .851 -66.813 90.454)"/><ellipse cx="398.916" cy="324.027" rx="40.99" ry="40.99" transform="matrix(.924 -.383 .383 .924 -93.634 177.324)"/><path d="m351.915 243.615c11.214-5.303 18.975-16.715 18.975-29.944v-40.731-40.732c0-18.286-14.824-33.11-33.11-33.11-18.286 0-33.11 14.824-33.11 33.11v40.732 20.496c-16.69-10.196-31.927-13.119-38.994-6.052-10.446 10.446.913 38.741 25.371 63.199s52.753 35.817 63.199 25.371c6.114-6.114 4.749-18.345-2.331-32.339z"/><path d="m213.885 127.617c.456 0 .91-.012 1.361-.034-5.523 11.003-6.559 20.609-1.744 25.325 8.117 7.949 29.784-1.014 48.396-20.019 18.611-19.005 27.119-40.855 19.002-48.804-6.929-6.785-23.733-1.24-40.08 12.349-1.918-13.158-13.244-23.264-26.934-23.264-15.035 0-27.224 12.189-27.224 27.224s12.188 27.223 27.223 27.223z"/></g><g><circle cx="261.419" cy="380.618" fill="#fff" r="87.284"/><path d="m348.702 385.619h-174.566c-2.762 0-5-2.239-5-5s2.238-5 5-5h174.566c2.762 0 5 2.239 5 5s-2.238 5-5 5z" fill="#00c"/><path d="m267.597 309.338h-81.463c-18.286 0-33.11-14.824-33.11-33.11 0-18.286 14.824-33.11 33.11-33.11h81.463c18.286 0 33.11 14.824 33.11 33.11 0 18.286-14.824 33.11-33.11 33.11z" fill="#fff"/><path d="m214.92 243.12c-.84 1.08-1.75 2.13-2.75 3.12l-51.34 51.34c-4.87-5.76-7.81-13.22-7.81-21.35 0-9.15 3.71-17.42 9.7-23.41 5.99-6 14.27-9.7 23.41-9.7z" fill="#ebebff"/><g><path d="m212.168 226.034-57.603 57.603c-12.93 12.93-33.894 12.93-46.825 0-12.93-12.93-12.93-33.894 0-46.824l57.603-57.603c12.93-12.93 33.894-12.93 46.824 0 12.931 12.93 12.931 33.894.001 46.824z" fill="#6583fe"/><path d="m136.542 208.011 28.801-28.801c12.93-12.93 33.894-12.93 46.824 0 12.93 12.93 12.93 33.894 0 46.825l-28.801 28.801z" fill="#fff"/></g><g><path d="m370.89 107.208v81.463c0 18.286-14.824 33.11-33.11 33.11-18.286 0-33.11-14.824-33.11-33.11v-81.463c0-18.286 14.824-33.11 33.11-33.11 18.286 0 33.11 14.824 33.11 33.11z" fill="#6583fe"/><path d="m304.67 147.939v-40.731c0-18.286 14.824-33.11 33.11-33.11 18.286 0 33.11 14.824 33.11 33.11v40.731z" fill="#fff"/></g><g><path d="m226.865 293.335c-2.762 0-5-2.239-5-5v-24.214c0-2.761 2.238-5 5-5s5 2.239 5 5v24.214c0 2.761-2.238 5-5 5z" fill="#00c"/></g><ellipse cx="302.886" cy="313.843" fill="#6583fe" rx="28.156" ry="28.156" transform="matrix(.16 -.987 .987 .16 -55.421 562.546)"/><g><g><circle cx="159.954" cy="373.963" fill="#fff" r="34.78"/></g></g><ellipse cx="109.318" cy="346.74" fill="#6583fe" rx="27.224" ry="27.224" transform="matrix(.16 -.987 .987 .16 -250.455 399.104)"/><g fill="#fff"><ellipse cx="125.8" cy="137.822" rx="27.224" ry="27.224" transform="matrix(.924 -.383 .383 .924 -43.166 58.633)"/><ellipse cx="398.916" cy="299.027" rx="40.99" ry="40.99" transform="matrix(.707 -.707 .707 .707 -94.604 369.659)"/><ellipse cx="309.961" cy="206.668" rx="26.748" ry="62.628" transform="matrix(.707 -.707 .707 .707 -55.351 279.708)"/></g></g><g fill="#6583fe"><g><g><path d="m103.897 412.539c-2.762 0-5-2.239-5-5v-.15c0-2.761 2.238-5 5-5s5 2.239 5 5v.15c0 2.761-2.238 5-5 5z"/><path d="m103.897 440.323c-2.762 0-5-2.239-5-5v-.15c0-2.761 2.238-5 5-5s5 2.239 5 5v.15c0 2.761-2.238 5-5 5z"/></g><g><path d="m91.927 419.448c-.851 0-1.712-.217-2.5-.674l-.13-.075c-2.39-1.384-3.206-4.442-1.822-6.833 1.384-2.39 4.445-3.205 6.832-1.822l.13.075c2.39 1.384 3.206 4.442 1.822 6.832-.927 1.602-2.607 2.497-4.332 2.497z"/><path d="m115.988 433.34c-.851 0-1.712-.217-2.5-.674l-.13-.075c-2.39-1.384-3.206-4.442-1.822-6.832 1.384-2.389 4.444-3.204 6.832-1.822l.13.075c2.39 1.384 3.206 4.442 1.822 6.833-.926 1.6-2.606 2.495-4.332 2.495z"/></g><g><path d="m91.807 433.34c-1.726 0-3.405-.895-4.332-2.496-1.384-2.39-.567-5.449 1.822-6.833l.13-.075c2.39-1.384 5.449-.567 6.832 1.822 1.384 2.39.567 5.449-1.822 6.832l-.13.075c-.788.458-1.651.675-2.5.675z"/><path d="m115.868 419.448c-1.727 0-3.405-.895-4.332-2.496-1.384-2.39-.567-5.449 1.822-6.832l.13-.075c2.39-1.384 5.449-.567 6.832 1.822 1.384 2.39.567 5.449-1.822 6.833l-.13.075c-.788.456-1.65.673-2.5.673z"/></g></g><g><g><path d="m398.916 371.832c-2.762 0-5-2.239-5-5v-.15c0-2.761 2.238-5 5-5s5 2.239 5 5v.15c0 2.761-2.238 5-5 5z"/><path d="m398.916 399.616c-2.762 0-5-2.239-5-5v-.15c0-2.761 2.238-5 5-5s5 2.239 5 5v.15c0 2.761-2.238 5-5 5z"/></g><g><path d="m386.945 378.741c-.846 0-1.702-.215-2.488-.667l-.13-.075c-2.393-1.376-3.218-4.433-1.841-6.827 1.377-2.393 4.432-3.218 6.827-1.841l.13.075c2.393 1.376 3.218 4.433 1.841 6.827-.925 1.608-2.607 2.508-4.339 2.508z"/><path d="m411.007 392.633c-.846 0-1.702-.215-2.488-.667l-.13-.075c-2.394-1.376-3.218-4.433-1.841-6.827 1.376-2.394 4.432-3.219 6.827-1.841l.13.075c2.393 1.376 3.218 4.433 1.841 6.827-.925 1.608-2.608 2.508-4.339 2.508z"/></g><g><path d="m386.825 392.633c-1.731 0-3.414-.9-4.339-2.508-1.377-2.394-.553-5.451 1.841-6.827l.13-.075c2.396-1.377 5.451-.552 6.827 1.841 1.377 2.394.553 5.451-1.841 6.827l-.13.075c-.786.452-1.642.667-2.488.667z"/><path d="m410.887 378.741c-1.731 0-3.414-.9-4.339-2.508-1.377-2.394-.553-5.451 1.841-6.827l.13-.075c2.396-1.377 5.451-.552 6.827 1.841 1.377 2.394.553 5.451-1.841 6.827l-.13.075c-.786.452-1.643.667-2.488.667z"/></g></g><path d="m80.469 217.174c-2.762 0-5-2.239-5-5 0-3.492-2.842-6.333-6.334-6.333-2.762 0-5-2.239-5-5s2.238-5 5-5c3.492 0 6.334-2.841 6.334-6.333 0-2.761 2.238-5 5-5s5 2.239 5 5c0 3.492 2.841 6.333 6.333 6.333 2.762 0 5 2.239 5 5s-2.238 5-5 5c-3.492 0-6.333 2.841-6.333 6.333 0 2.761-2.239 5-5 5z"/><path d="m417.906 228.507c-2.762 0-5-2.239-5-5 0-3.492-2.841-6.333-6.333-6.333-2.762 0-5-2.239-5-5s2.238-5 5-5c3.492 0 6.333-2.841 6.333-6.333 0-2.761 2.238-5 5-5s5 2.239 5 5c0 3.492 2.841 6.333 6.333 6.333 2.762 0 5 2.239 5 5s-2.238 5-5 5c-3.492 0-6.333 2.841-6.333 6.333 0 2.762-2.238 5-5 5z"/><path d="m434.8 181.379c-2.762 0-5-2.239-5-5 0-3.492-2.841-6.333-6.333-6.333-2.762 0-5-2.239-5-5s2.238-5 5-5c3.492 0 6.333-2.841 6.333-6.334 0-2.761 2.238-5 5-5s5 2.239 5 5c0 3.492 2.841 6.334 6.333 6.334 2.762 0 5 2.239 5 5s-2.238 5-5 5c-3.492 0-6.333 2.841-6.333 6.333 0 2.762-2.239 5-5 5z"/></g><g><ellipse cx="247.201" cy="93.496" fill="#6583fe" rx="48.164" ry="20.571" transform="matrix(.7 -.715 .715 .7 7.443 204.697)"/></g><g><g><circle cx="213.885" cy="75.394" fill="#fff" r="27.224"/><g fill="#00c"><path d="m336.042 313.843c0-17.429-13.52-31.749-30.621-33.049.183-1.498.286-3.019.286-4.566 0-21.014-17.097-38.11-38.11-38.11h-43.762c-2.762 0-5 2.239-5 5s2.238 5 5 5h43.762c15.5 0 28.11 12.61 28.11 28.11 0 1.837-.183 3.632-.522 5.372-11.411 2.726-20.553 11.359-23.986 22.481-1.182.152-2.379.257-3.602.257h-81.463c-11.866 0-22.541-7.634-26.48-18.719l56.049-56.049c14.858-14.859 14.858-39.037 0-53.895-14.859-14.859-39.036-14.857-53.895 0l-57.603 57.603c-7.198 7.198-11.163 16.768-11.163 26.948s3.965 19.75 11.163 26.948 16.769 11.162 26.947 11.162c7.366 0 14.407-2.086 20.467-5.96 6.195 13.162 19.677 21.963 34.515 21.963h11.151c-7.374 7.139-13.563 15.491-18.243 24.735-5.67-3.114-12.174-4.89-19.087-4.89-7.006 0-13.589 1.827-19.311 5.022-3.403-14.144-16.152-24.689-31.325-24.689-17.769 0-32.225 14.456-32.225 32.224s14.456 32.224 32.225 32.224c3.856 0 7.555-.683 10.986-1.93 1.574 20.505 18.749 36.711 39.65 36.711 5.062 0 9.902-.961 14.359-2.693 12.605 35.974 46.882 61.851 87.105 61.851 50.885 0 92.283-41.398 92.283-92.283 0-21.234-7.23-40.797-19.33-56.406 1.078-3.267 1.67-6.751 1.67-10.372zm-224.767-33.741c-5.31-5.309-8.233-12.368-8.233-19.877 0-7.508 2.924-14.567 8.233-19.876l57.603-57.603c5.482-5.48 12.678-8.22 19.878-8.22 7.197 0 14.397 2.741 19.877 8.22 10.959 10.96 10.959 28.793 0 39.753l-57.604 57.603c-5.31 5.309-12.368 8.233-19.877 8.233-7.508 0-14.567-2.924-19.877-8.233zm191.612 10.585c12.768 0 23.155 10.388 23.155 23.156s-10.388 23.156-23.155 23.156c-12.768 0-23.156-10.388-23.156-23.156-.001-12.768 10.387-23.156 23.156-23.156zm-215.793 56.053c0-12.254 9.97-22.224 22.225-22.224 12.254 0 22.224 9.969 22.224 22.224 0 12.254-9.97 22.224-22.224 22.224-12.256-.001-22.225-9.97-22.225-22.224zm43.08 27.223c0-.952.062-1.889.15-2.818 5.892-5.078 9.928-12.245 10.952-20.342 5.112-4.133 11.607-6.62 18.678-6.62 16.421 0 29.78 13.359 29.78 29.78s-13.359 29.78-29.78 29.78-29.78-13.359-29.78-29.78zm213.528 6.656c0 45.371-36.912 82.283-82.283 82.283-36.443 0-67.404-23.825-78.186-56.71 9.987-7.234 16.502-18.981 16.502-32.228 0-11.374-4.806-21.64-12.484-28.897 5.878-12.213 14.676-22.761 25.495-30.728h54.852c.72 0 1.435-.024 2.145-.064.233 18.083 15.008 32.725 33.145 32.725 10.688 0 20.204-5.088 26.271-12.963 9.151 13.252 14.543 29.29 14.543 46.582z"/><path d="m298.766 318.843h8.241c2.762 0 5-2.239 5-5s-2.238-5-5-5h-8.241c-2.762 0-5 2.239-5 5s2.238 5 5 5z"/><path d="m125.8 170.046c17.769 0 32.225-14.456 32.225-32.224s-14.456-32.224-32.225-32.224-32.224 14.456-32.224 32.224c0 17.769 14.455 32.224 32.224 32.224zm0-54.447c12.255 0 22.225 9.969 22.225 22.224s-9.97 22.224-22.225 22.224c-12.254 0-22.224-9.97-22.224-22.224s9.97-22.224 22.224-22.224z"/><path d="m398.916 253.037c-25.359 0-45.99 20.631-45.99 45.99s20.631 45.99 45.99 45.99 45.99-20.631 45.99-45.99-20.631-45.99-45.99-45.99zm0 81.98c-19.845 0-35.99-16.145-35.99-35.99s16.145-35.99 35.99-35.99 35.99 16.145 35.99 35.99-16.145 35.99-35.99 35.99z"/><path d="m262.142 158.848c-6.558 6.558-7.094 17.831-1.509 31.744 5.038 12.549 14.584 26.231 26.88 38.527 12.295 12.295 25.978 21.841 38.526 26.879 6.372 2.558 12.188 3.832 17.254 3.831 5.993 0 10.935-1.785 14.488-5.339 6.558-6.558 7.094-17.831 1.509-31.743-.275-.686-.57-1.377-.872-2.069 10.502-6.792 17.473-18.595 17.473-32.006v-30.618c0-2.761-2.238-5-5-5s-5 2.239-5 5v30.618c0 9.522-4.77 17.939-12.036 23.024-5.332-9.256-12.685-18.717-21.444-27.476-7.269-7.269-15.022-13.566-22.74-18.55v-58.461c0-15.5 12.61-28.11 28.11-28.11s28.11 12.61 28.11 28.11v21.744c0 2.761 2.238 5 5 5s5-2.239 5-5v-21.744c0-21.014-17.097-38.11-38.11-38.11-21.014 0-38.11 17.096-38.11 38.11v52.744c-1.948-.966-3.881-1.847-5.786-2.612-13.913-5.585-25.186-5.051-31.743 1.507zm87.868 67.623c3.883 9.672 4.145 17.503.701 20.947-3.445 3.444-11.276 3.181-20.946-.701-11.324-4.546-23.818-13.308-35.182-24.67-11.362-11.362-20.124-23.857-24.67-35.181-3.883-9.672-4.145-17.503-.701-20.947 1.609-1.609 4.175-2.409 7.439-2.409 3.723 0 8.355 1.041 13.508 3.11 11.324 4.546 23.818 13.308 35.182 24.67 11.361 11.363 20.122 23.857 24.669 35.181z"/><path d="m207.907 107.052c-3.605 9.837-3.648 18.801 2.097 24.428 3.086 3.022 7.096 4.359 11.662 4.358 12.991-.001 30.462-10.827 43.805-24.452 18.032-18.414 30.793-44.254 18.927-55.875-5.445-5.333-14.564-5.741-25.671-1.146-4.91 2.031-10.03 4.967-15.112 8.602-4.874-11.617-16.363-19.798-29.729-19.798-17.768 0-32.224 14.456-32.224 32.224 0 15.725 11.324 28.847 26.245 31.659zm38.202-31.658c0-.591-.019-1.178-.05-1.761 5.556-4.379 11.19-7.834 16.49-10.026 3.873-1.602 7.372-2.416 10.1-2.416 2.105 0 3.751.485 4.753 1.466 2.3 2.253 2.055 7.95-.639 14.87-3.35 8.603-9.897 18.144-18.436 26.864-18.436 18.826-36.785 24.388-41.326 19.946-2.3-2.252-2.055-7.95.64-14.87.282-.724.594-1.456.921-2.192 15.559-2.273 27.547-15.701 27.547-31.881zm-32.223-22.224c12.254 0 22.224 9.969 22.224 22.224 0 12.254-9.97 22.224-22.224 22.224s-22.224-9.969-22.224-22.224 9.97-22.224 22.224-22.224z"/></g></g></g></g></g></svg>