<svg xmlns="http://www.w3.org/2000/svg" width="18.363" height="18.363" viewBox="0 0 18.363 18.363">
  <g id="Group_1198" data-name="Group 1198" transform="translate(-147.89 -4266.89)">
    <path id="Path_448" data-name="Path 448" d="M236.192,84.171h-3.838V80.333a2.169,2.169,0,0,0-2.169-2.169h-2.013A2.169,2.169,0,0,0,226,80.333V84.17h-3.838A2.169,2.169,0,0,0,220,86.339v2.013a2.169,2.169,0,0,0,2.169,2.169H226v3.838a2.169,2.169,0,0,0,2.169,2.169h2.013a2.169,2.169,0,0,0,2.169-2.169V90.521h3.838a2.169,2.169,0,0,0,2.169-2.169V86.339A2.169,2.169,0,0,0,236.192,84.171Z" transform="translate(-72.108 4188.726)" fill="#fff"/>
  </g>
</svg>
